<svg width="81" height="65" viewBox="0 0 81 65" fill="none" xmlns="http://www.w3.org/2000/svg">
<path d="M80.8333 8.08333V56.5833C80.8333 58.8062 80.0418 60.7092 78.4589 62.2922C76.8759 63.8752 74.9729 64.6667 72.75 64.6667H8.08333C5.86042 64.6667 3.95747 63.8752 2.37448 62.2922C0.791493 60.7092 0 58.8062 0 56.5833V8.08333C0 5.86042 0.791493 3.95746 2.37448 2.37448C3.95747 0.791493 5.86042 0 8.08333 0H72.75C74.9729 0 76.8759 0.791493 78.4589 2.37448C80.0418 3.95746 80.8333 5.86042 80.8333 8.08333ZM8.08333 16.1667H72.75V8.08333H8.08333V16.1667ZM8.08333 32.3333V56.5833H72.75V32.3333H8.08333Z" fill="#CC2530"/>
</svg>
