<svg width="541" height="541" viewBox="0 0 541 541" fill="none" xmlns="http://www.w3.org/2000/svg">
<g clip-path="url(#clip0_193_6)">
<path d="M540.23 0H0V540.23H540.23V0Z" fill="#CD202A"/>
<path d="M448.69 191.41C438.96 185.47 428.67 180.48 417.97 176.53C415.46 187 412.95 197.47 410.45 207.95C421.24 211.8 430.92 215.95 441.17 221.1C443.66 211.2 446.16 201.3 448.69 191.42V191.41Z" fill="white"/>
<path d="M395.42 271.77C406.08 274.62 415.86 277.84 426.15 281.84C428.64 271.64 431.14 261.44 433.67 251.24C423.39 246.69 413.67 243.03 402.94 239.71C400.43 250.39 397.92 261.09 395.42 271.77Z" fill="white"/>
<path d="M233.94 142.52C232.58 148.08 231.22 153.63 229.86 159.19C236.64 156.4 243.51 154.34 250.44 153.05C254.2 152.38 257.88 151.92 261.44 151.71C252.02 149.07 243.18 146.11 233.95 142.52H233.94Z" fill="white"/>
<path d="M357.18 299.53C367.43 300.55 377.82 302.03 387.9 304.13C390.4 293.35 392.91 282.56 395.42 271.77C385.21 269.58 375.09 267.57 364.7 266.37C362.19 277.42 359.68 288.47 357.18 299.53Z" fill="white"/>
<path d="M356.55 163.37C359.13 166.28 361.51 169.43 363.68 172.79C366.05 176.53 368.09 180.73 369.59 184.95C370.41 187.28 371.4 190.44 371.64 194.04C371.77 195.79 371.66 197.53 371.33 199.2C374.15 199.6 376.95 200.04 379.75 200.53C377.24 211.48 374.73 222.42 372.23 233.36C382.66 234.79 392.75 237.14 402.95 239.7C405.45 229.11 407.96 218.53 410.47 207.95C400.29 204.98 390.24 202.24 379.76 200.53C382.26 189.66 384.77 178.79 387.28 167.92C377.19 165.84 366.81 164.38 356.56 163.38L356.55 163.37Z" fill="white"/>
<path d="M354.03 231.13C353.83 241.4 352.57 253.06 350.34 264.81C355.14 265.27 359.93 265.78 364.71 266.37C367.21 255.36 369.72 244.36 372.23 233.36C366.19 232.47 360.12 231.75 354.03 231.13Z" fill="white"/>
<path d="M462.08 166.71C448.52 161.28 423.54 151.65 408.65 148.15C398.16 145.68 374.78 143.46 350.03 141.12C343.69 140.51 337.34 139.92 331.22 139.31C320.63 138.26 307.32 136.87 298.23 135.43C294.76 134.88 292.16 134.38 290.28 133.9C270.98 129.01 225.98 108.13 225.53 107.91L220.15 105.41L196.22 174.02L194.93 177.71C195.37 178.42 195.75 179.17 196.08 179.93C197.8 178.5 199.54 177.13 201.29 175.8C203.78 173.91 206.3 172.12 208.84 170.44L226.39 120.13C238.8 125.77 269.34 139.3 286.09 143.9C289.8 142.49 293.59 141.43 297.39 140.74C300.92 140.1 304.46 139.76 307.98 139.76H307.99C308.2 139.76 308.4 139.76 308.61 139.76H309.57L309.79 139.79C316.97 140.17 324.02 141.84 330.7 144.64C334.9 146.39 338.96 148.6 342.8 151.21C344.87 151.41 346.95 151.6 349.02 151.8C372.32 154.01 396.42 156.29 406.19 158.59C420.41 161.94 444.82 171.36 458.09 176.68C460.78 177.75 462.28 180.59 461.65 183.42L430.86 323.38C430.48 325.1 429.41 326.5 427.87 327.33C426.33 328.15 424.58 328.25 422.94 327.6C407.13 321.38 386.14 313.63 376 312.06C370.3 311.18 356.88 310.13 337.07 308.62C336.35 310.34 335.59 312.08 334.78 313.84C334 315.56 333.18 317.3 332.33 319.05L334.38 319.2C351.12 320.47 368.45 321.78 374.36 322.7C381.51 323.8 397.37 329.1 419.01 337.61C420.97 338.38 423.04 338.76 425.1 338.76C427.8 338.76 430.48 338.11 432.91 336.81C437.22 334.52 440.28 330.47 441.34 325.7L472.13 185.74C473.89 177.76 469.66 169.76 462.07 166.71H462.08Z" fill="white"/>
<path d="M124.03 380.97L107.05 429.67C106.07 432.47 107.55 435.53 110.35 436.51C110.94 436.72 111.53 436.81 112.12 436.81C114.34 436.81 116.42 435.42 117.19 433.21L132.62 388.97C131.17 387.65 129.73 386.33 128.31 385.01C126.86 383.66 125.44 382.32 124.03 380.98V380.97Z" fill="white"/>
<path d="M128.32 385.01C129.74 386.33 131.17 387.65 132.63 388.97L124.04 380.98C125.45 382.33 126.87 383.67 128.32 385.01Z" fill="white"/>
<path d="M338.25 207.79C336.84 204.58 333.1 203.12 329.89 204.53C326.68 205.94 325.22 209.68 326.63 212.89C328.8 217.83 330.25 245.33 320.69 277.97C312.14 307.13 292.54 348.26 247.71 378.56L199.9 410.73C181.96 398.12 100.11 338.03 81.18 279.1C69.63 243.13 77.85 218.91 86.78 204.93C94.66 192.6 109.9 179.26 126.19 177.24C151.12 174.15 173.98 192.29 174.2 192.46C176.92 194.67 180.92 194.25 183.13 191.52C185.34 188.8 184.92 184.8 182.19 182.59C181.09 181.7 155 160.88 124.63 164.63C106.71 166.85 87.65 179.98 76.08 198.08C65.68 214.36 56.03 242.3 69.09 282.97C78.61 312.61 102.98 345.34 141.52 380.25C169.95 406 195.25 422.97 196.32 423.68L199.86 426.04L254.8 389.07C302.77 356.64 323.73 312.68 332.86 281.52C342.72 247.87 342.33 217.06 338.25 207.77V207.79Z" fill="white"/>
<path d="M137.04 293.62C137.24 293.93 142.99 296.87 143.83 296.87C143.87 296.87 143.89 296.87 143.91 296.86C144.49 295.93 143.32 291.42 143.03 291.18C142.79 290.97 142.35 290.88 141.81 290.88C139.73 290.88 136.17 292.28 137.04 293.63V293.62Z" fill="white"/>
<path d="M209.27 217.17C209.73 220.97 215.73 215.56 219.54 215.3C222.53 215.08 224.87 216.98 227.47 217.66C228.8 218 230.03 216.86 229.83 215.5C228.16 204.04 208.02 206.79 209.26 217.18L209.27 217.17Z" fill="white"/>
<path d="M363.76 201.97C363.62 199.97 363.05 198.02 362.39 196.17C361.23 192.88 359.62 189.55 357.74 186.6C348.1 171.63 331.99 160.38 313.68 159.48C302.88 159.26 292.37 162.95 283.48 168.96C276.6 166.11 267.85 165.21 257.74 166.41C242.19 168.26 225.04 174.75 209.45 184.69C189.59 197.37 188.19 207.62 186.83 217.55C186.74 218.18 186.65 218.8 186.57 219.43C185.78 224.88 184.62 230.19 179.47 236.68C170.7 247.74 149.13 264.52 132.11 277C132.09 277.02 132.07 277.03 132.05 277.05C127.58 280.32 123.42 283.3 119.88 285.8C119.83 285.82 119.78 285.85 119.73 285.88C119.03 286.19 118.42 286.63 117.92 287.17C116.42 288.8 115.95 291.27 117.09 293.37C117.96 294.89 118.94 296.31 120.02 297.63C131.59 311.69 154.57 313.9 171.18 309.29C190.4 304.07 208.15 294.01 225.81 285.56C232.24 282.52 238.74 279.31 245.57 277.55C246.09 277.42 247.16 277.18 247.69 277.12C251.69 276.29 254.99 278.4 257.98 281.37C274.76 300.26 267.87 331.42 258.45 352.55C257.21 355.64 261.57 357.44 262.97 354.6C273.77 331.4 281.14 298.35 262.56 276.96C259.11 273.22 254.51 270.47 249.36 270.36C249.4 270.36 249.43 270.36 249.47 270.36C249.44 270.36 249.43 270.36 249.41 270.36C249.34 270.36 249.27 270.36 249.2 270.36C247.96 270.34 246.69 270.48 245.39 270.78C237.43 272.42 230.1 275.9 222.8 279.18C207.86 286.07 193.62 293.51 178.27 298.77C172.38 300.76 166.27 302.44 160.15 302.98C151.33 303.57 141.92 302.28 134.14 297.98C131.59 296.51 129.25 294.66 127.39 292.46C145.11 279.89 175.57 257.3 187.1 242.77C192.12 236.45 194.22 230.85 195.34 225.8C195.88 223.39 196.19 221.1 196.49 218.9C197.69 210.12 198.64 203.2 214.69 192.95C243.27 174.73 275.91 169.37 286.59 181.84C286.71 181.72 291.46 178.19 294.03 176.56C304.92 169.67 317.84 167.87 330.38 173.94C341.83 179.28 352.11 188.89 356.23 201.03C355.33 200.82 354.36 200.52 353.35 200.23C335.55 194.29 324.81 194.12 309.66 206.18C303.07 211.29 297.55 217.06 290.44 221.03C286.17 223.33 281.82 225.64 277.35 227.45C276.23 227.9 276.82 229.61 277.98 229.23C284.24 226.94 290.37 224.4 296.11 221.02C301.81 217.45 306.8 213.14 312.08 209.49C324.08 200.95 333.04 199.63 346.68 204.79L351.25 206.48C353.24 207.16 355.83 208.25 358.34 208.2H358.46C361.93 208.14 363.98 205.24 363.72 202.01L363.76 201.97Z" fill="white"/>
</g>
<defs>
<clipPath id="clip0_193_6">
<rect width="540.23" height="540.23" rx="270.115" fill="white"/>
</clipPath>
</defs>
</svg>
