<svg width="262" height="127" viewBox="0 0 262 127" fill="none" xmlns="http://www.w3.org/2000/svg">
<path d="M129.399 118.418C129.181 118.069 126.65 115.179 126.448 115.086C125.505 114.661 123.896 114.906 124.463 116.406C127.73 116.569 128.57 119.64 128.597 122.525L130.086 125.672C132.169 124.205 130.402 120.032 129.404 118.418H129.399ZM246.917 35.7171C246.824 35.6243 245.412 36.7587 244.583 37.0151C236.844 39.4311 223.46 35.199 214.189 36.4042C202.807 37.8931 188.823 51.0804 182.415 60.21C179.863 63.8531 178.401 68.6143 174.442 71.4284C172.287 71.2648 173.994 70.8285 174.583 70.2886C175.718 69.2251 176.808 67.3163 177.556 65.9365C180.981 59.6046 184.335 54.8544 188.376 48.9697L196.622 41.9944L195.635 41.6671C193.857 43.6578 191.288 44.8849 189.325 46.6028C186.178 49.3624 184.127 52.9074 181.417 55.9015C180.583 56.8286 179.312 57.0904 178.434 58.2084C176.792 60.3191 171.698 69.1542 170.635 71.6466C170.231 72.5955 170.869 73.3263 170.809 73.3863C170.466 73.7354 168.666 73.5936 168.137 73.779C166.523 74.3353 165.377 75.5297 163.899 76.0859C160.785 77.2694 161.898 76.2059 159.575 78.3547C155.173 82.4069 144.075 84.7138 138.381 86.9662C135.725 88.0188 133.266 90.0094 130.44 90.6039C132.982 86.6826 138.005 86.9553 141.686 84.6538L139.047 83.9885C138.976 83.334 141.157 82.2323 141.49 82.1396C143.328 81.6379 145.891 82.1996 147.942 81.9651C150.881 81.6379 154.001 79.9254 156.919 79.3637C157.082 78.2184 155.353 78.6547 154.65 78.7474C148.951 79.5055 143.966 80.3726 138.054 80.3781C137.536 80.3781 135.507 80.2744 135.736 79.3691L146.147 76.2114C151.296 76.2223 156.651 74.6134 160.229 70.7685C157.437 71.1339 155.331 72.6337 152.457 73.25C147.68 74.2807 143.175 75.7533 138.703 76.7077C138.114 76.8276 136.194 77.1549 136.401 76.0587C138.218 75.9114 139.128 74.1553 140.372 73.0809C139.117 72.072 136.57 74.4334 135.409 75.3988C130.702 79.26 127.763 84.6538 123.225 88.7005C123.111 88.7987 123.738 89.6386 123.678 90.1676C123.378 92.66 119.429 99.9571 117.564 101.877C117.144 102.308 113.49 105.373 113.239 105.498C112.268 105.978 111.21 105.662 110.392 105.962C107.049 107.167 107.475 108.47 103.499 106.616C95.4163 102.848 89.4662 97.3557 79.8239 96.5376C76.0063 96.2213 72.3904 97.0775 68.5455 95.905C67.0403 95.4468 67.8092 95.4359 66.9039 94.2416C68.0056 92.0928 71.5396 93.9852 72.205 93.6035C74.2829 92.4146 72.385 90.4512 72.854 89.9494C73.0885 89.7095 75.8208 89.2077 76.4917 89.235C78.166 89.3168 84.3724 90.8602 85.2777 92.0819C85.5777 92.4855 85.4577 93.3308 85.7794 93.8653C87.9173 97.3775 99.4466 98.0919 103.581 98.5882C105.757 98.8555 109.023 100.355 111.27 98.8991C111.598 98.6864 112.672 96.6412 112.563 96.5594C112.105 96.1831 110.027 96.7939 109.263 96.903C108.647 96.9903 107.775 97.7974 107.927 96.5594C111.063 95.2396 113.463 92.5182 115.366 89.7695C116.615 83.803 118.955 78.1638 120.324 72.2301C120.885 69.7868 120.885 66.9672 121.469 64.753C121.965 62.8932 125.325 62.0861 126.394 60.439C127.228 59.1574 128.619 53.6764 128.161 52.2093L124.479 45.6211C124.643 47.1482 124.447 48.3535 123.16 49.2642C126.257 50.8458 124.556 50.5404 124.654 52.4438C124.774 54.6199 125.761 57.5049 125.063 59.7628C124.823 60.5263 121.54 62.157 120.591 63.9022C119.62 65.6856 120.062 67.7798 118.851 69.4378C115.824 67.0272 116.064 63.1059 114.445 59.9482C112.863 56.8777 103.581 46.0792 103.357 45.1848C103.133 44.3068 103.902 43.4996 103.826 42.7361C103.684 41.3181 100.172 33.1483 99.2012 31.5231C96.3107 26.6256 93.1148 25.8948 88.7027 22.8298L86.0794 19.1648C86.1394 20.9046 86.7884 22.9988 87.7537 24.4332C88.3754 25.3603 92.9021 30.4978 93.6874 31.0759C95.0345 32.0685 96.4634 32.1121 97.3306 32.7284C98.1813 33.3392 100.908 38.7657 100.646 39.0057C99.1139 40.3964 97.6196 36.666 96.9979 36.3661C95.8908 35.8261 95.4435 37.9531 95.4926 38.553C95.5799 39.7365 96.7688 42.158 97.6632 43.0142C98.0668 43.4014 98.8467 43.4614 99.1685 43.7887C100.259 44.9176 101.437 48.9588 102.795 50.9495C102.975 51.2113 102.779 51.5712 102.457 51.5712C102.212 51.5712 102.135 51.893 102.348 52.013C102.593 52.1548 102.73 52.3347 102.626 52.5638C102.163 53.5782 99.5884 55.1925 98.7376 56.6159C97.2651 59.1029 96.5888 63.4441 94.9909 66.0892C93.1148 69.1869 86.9629 70.3867 83.5761 71.2266C77.8769 72.6446 70.2198 74.5752 64.5315 75.3497C63.3971 75.5078 61.6792 75.0115 62.9063 74.0626C63.4244 73.6645 65.9877 73.719 66.2167 72.0774C63.4789 71.4611 64.0189 72.5955 63.3753 73.1682C60.2721 75.9169 55.6637 77.4767 55.6255 82.6577C59.4213 81.4579 57.8834 81.9106 58.3197 84.932C58.5105 86.2681 59.8904 93.1726 61.9083 92.5836C63.2553 92.1855 62.6936 90.9857 62.4264 90.0912C61.8973 88.3515 60.703 86.5463 60.403 84.8338C59.874 81.8069 59.6122 79.849 62.7263 78.8401C65.5405 77.9239 68.9545 77.8857 71.796 77.3185C76.5517 76.3695 82.4363 74.5971 87.1102 74.1008C92.1876 73.5608 97.4451 78.5783 102.332 79.969C103.09 81.0434 102.217 85.3683 101.814 86.8081C101.252 88.8205 97.6414 95.0978 95.6617 95.2614C94.8654 95.3269 90.7915 94.018 90.0552 93.5544C88.6045 92.6436 88.1191 90.2494 87.2411 89.4313C85.474 87.7897 78.2641 86.939 75.8263 87.2989C74.1683 87.5443 72.914 88.9459 71.8341 89.2677C71.3433 89.415 71.5833 88.7114 71.5014 88.406C70.8252 85.6846 69.5654 90.3421 69.3963 90.4675C69.1291 90.6639 65.6332 92.8018 65.0824 93.0963C64.4006 93.4562 62.35 93.7944 62.2409 93.898C61.701 94.4161 63.5553 96.2922 63.9152 97.1812C65.4205 100.95 66.9257 108.209 63.2717 111.121C62.5136 111.726 59.045 113.537 58.2706 112.741L60.9429 110.728C60.7248 109.507 59.7976 108.727 59.6013 107.429C59.285 105.231 60.3485 103.715 60.2558 102.199C59.7704 94.1816 50.4008 85.9464 46.0432 79.969C44.0308 77.2094 44.2544 75.7478 47.6575 74.3571C51.7206 72.6991 57.7743 72.0283 62.2409 70.4086C66.3149 68.936 70.1216 66.7273 74.152 65.1075C77.4842 63.7713 82.6544 63.5041 84.7432 60.1554C80.2929 59.6428 75.8263 60.7172 71.5069 59.4901C72.0196 61.5625 74.7464 61.0444 75.4827 62.7951C73.9556 62.7569 72.9467 63.6022 71.3378 63.3514C69.5326 63.0678 63.4026 60.8044 61.3956 60.0027C56.6126 58.083 51.726 55.0398 50.3681 49.8424C50.1663 49.0788 49.9154 47.7972 49.0101 48.9043C48.8846 49.0516 49.141 50.884 48.8846 51.7566C48.7265 52.3184 46.7686 55.487 46.245 56.3923C44.6143 59.1901 42.3892 61.8734 40.3985 64.4421C39.9622 65.0148 38.8715 66.3128 39.0787 64.4476C40.8294 62.986 41.8383 60.8753 42.7273 58.8356C47.0849 48.8498 52.795 39.2511 57.9161 30.356C59.994 26.751 62.2355 23.2497 64.6133 19.8466C66.0531 17.785 68.8182 15.7126 68.8673 13.1875C65.8568 16.0725 62.2137 18.854 59.5958 22.1099C49.0701 35.2589 43.7308 58.0394 31.8143 68.4288C27.8276 71.8974 23.6936 73.9535 18.2726 73.3263C16.1892 73.0864 11.6626 71.0085 9.97191 69.7159C5.24349 66.0837 7.55044 54.9307 9.4429 50.0441C10.9372 46.1829 14.0786 42.5616 13.2715 38.0949C13.1678 37.5059 12.6225 37.6913 12.6061 37.6586C12.966 38.4821 11.8426 42.3379 11.3081 43.1996C11.0027 43.6905 10.2937 43.516 9.93919 44.0341C6.76509 48.6643 3.9564 58.1921 4.69266 63.7549C6.09428 74.3462 18.9925 78.0657 28.013 75.2133C29.5783 74.7225 30.2491 73.4136 31.8034 73.3754C27.1513 78.5129 18.8398 81.8997 12.1371 78.8019C-0.172115 73.1518 1.60582 58.1212 5.28712 47.2682C5.85977 45.6048 9.63378 36.4042 10.9427 36.4042C11.0463 36.4042 12.557 37.6041 12.6006 37.6968C11.3735 35.0899 10.2719 33.4483 8.06309 36.8024C3.94003 43.0633 -0.559333 57.734 0.0569443 65.1075C0.760482 73.4409 5.02534 79.0037 13.2278 81.0434C17.6617 82.1505 26.7641 80.8035 30.6963 78.6056C35.9864 75.6387 44.2707 62.6533 47.5539 57.085C48.0775 56.2015 48.8792 53.7091 48.9992 53.5618C49.0537 53.4964 50.1117 53.2237 50.3081 53.9709C52.2878 61.7807 61.0466 67.0708 68.8509 64.8075L63.7353 67.2999C59.4104 68.7288 55.1837 70.1086 50.668 70.7849C48.6992 71.0794 46.9867 70.4413 44.827 71.5593C38.5988 74.7825 46.125 82.685 48.2084 86.4154C49.839 89.3441 55.2165 98.1574 55.98 100.481C56.3563 101.621 57.6325 108.329 57.6379 109.452C57.6488 110.919 56.1163 112.97 56.2909 113.057C56.4708 113.15 56.9344 112.943 57.3598 113.313C57.6107 113.532 57.5016 114.11 58.0524 114.388C59.4213 115.07 60.8448 114.84 62.2246 114.41C62.4973 116.1 61.9192 115.817 60.5503 115.762C59.454 115.713 55.9473 114.721 55.6091 115.07C55.3746 115.31 56.0563 116.264 56.0182 116.744C55.9909 117.257 54.0821 118.522 55.9473 119.04C57.398 119.443 63.6916 117.284 65.1096 116.302C67.891 114.371 69.2327 109.452 68.8127 106.174C68.5619 104.178 64.4879 96.903 64.8806 96.554C65.2242 96.2431 70.3343 98.97 71.8614 99.1663C78.0678 99.9626 83.6034 98.5828 89.8425 101.702C92.6567 103.104 90.2352 103.398 89.0517 105.193C88.7027 105.733 88.8608 106.654 88.5881 107.009C88.2609 107.434 86.2921 107.532 85.6813 108.438C84.9832 109.469 85.9267 110.237 85.894 110.799C85.8613 111.503 78.3405 113.952 76.8461 114.791C73.9175 116.438 73.683 117.846 71.8014 119.7C71.4742 120.016 68.5673 121.112 70.607 121.658C71.3978 121.87 71.736 121.963 72.4995 122.334C73.1321 122.639 74.2883 122.89 74.1465 123.659C72.6467 124.036 71.2178 122.912 69.8871 122.994C69.369 123.027 67.3784 123.441 67.5311 124.319C69.6963 123.474 71.1251 125.454 72.4886 125.655C74.2938 125.923 76.868 125.895 78.7932 126.043C83.478 124.172 87.8083 120.9 91.9695 117.993C93.6874 116.798 96.5288 113.668 98.3013 113.695C103.319 115.146 108.963 115.708 113.872 117.377C114.995 117.753 119.042 119.465 119.811 120.038C121.245 121.091 121.376 122.95 123.307 123.817C126.388 125.197 130.102 124.101 126.252 122.198C124.659 121.407 123.46 121.156 121.851 119.983C119.696 118.402 118.6 116.122 115.192 116.389L116.511 115.07C113.583 115.222 110.747 115.059 107.905 114.404C109.405 111.339 111.276 111.808 114.183 111.715C115.143 111.688 115.955 110.532 116.511 112.419L113.037 112.583L109.891 113.739C112.803 114.137 116.07 112.272 118.824 112.37C121.611 112.474 124.223 113.908 126.443 115.064C127.299 115.511 128.783 115.779 129.568 116.569C131.471 118.489 131.209 122.607 134.722 123.665L131.88 116.58C128.624 111.737 122.243 111.688 117.16 110.118C116.37 109.872 112.874 108.705 112.536 108.443C111.625 107.751 112.547 107.287 113.376 106.993C115.557 106.218 119.047 104.593 120.487 102.837C121.622 101.462 123.465 96.3467 123.907 96.0031C124.239 95.7468 125.478 95.7305 126.236 95.3651C130.648 93.1999 135.016 90.5439 139.674 88.935C149.343 85.6028 151.459 85.0519 160.404 79.8872C165.677 76.844 174.267 74.837 178.068 70.4195C184.291 63.2096 188.583 54.838 196.273 48.2662C210.878 35.7716 220.417 38.3785 237.956 39.6929C239.451 39.7965 249.169 38.0131 246.906 35.7007L246.917 35.7171ZM130.424 83.334H131.079V84.6538H130.424V83.334ZM104.606 96.5594H101.301V95.9104H104.606V96.5594ZM113.212 81.3597H115.197V82.0087H113.212V81.3597ZM111.227 81.3597H112.547V82.0087H111.227V81.3597ZM111.881 86.6499L103.281 87.9697V85.9845C106.182 86.2572 108.925 86.9717 111.881 86.6499ZM108.156 84.0539H108.096L103.286 84.6593C103.472 84.1903 103.706 83.8739 103.968 83.683C104.033 83.634 104.11 83.5958 104.18 83.5631C104.251 83.5303 104.328 83.5031 104.399 83.4813H104.404C104.475 83.4594 104.557 83.4485 104.639 83.4322C104.71 83.4267 104.797 83.4213 104.879 83.4213C104.971 83.4213 105.064 83.4267 105.157 83.4431C105.249 83.4485 105.348 83.4649 105.451 83.4813C105.549 83.5031 105.653 83.5194 105.751 83.5467C105.849 83.5685 105.948 83.5958 106.046 83.6176C106.346 83.6994 106.64 83.7812 106.94 83.863C107.033 83.8848 107.12 83.9121 107.213 83.9285C107.311 83.9557 107.404 83.9776 107.496 83.9885C107.578 83.9994 107.655 84.0157 107.736 84.0212C107.884 84.043 108.031 84.0485 108.167 84.043H108.162L108.156 84.0539ZM107.916 55.5634H108.571V56.8832H107.916V55.5634ZM100.636 62.1788H103.941V62.8333H100.636V62.1788ZM101.295 76.724C97.8377 76.2223 97.5378 74.6516 101.295 76.0696V76.724ZM95.6399 72.7264C94.4564 72.7864 92.8094 73.5227 92.6948 73.419C91.8713 72.6555 93.4038 71.7229 94.3691 71.4557C98.1377 70.4249 100.826 71.652 104.611 71.4339V73.419C103.27 73.9699 102.233 72.3828 101.65 72.3392C100.576 72.2574 97.2051 72.6501 95.6399 72.7319V72.7264ZM101.955 76.7295C103.913 76.9749 106.984 75.8078 107.916 78.0438C104.426 77.024 104.322 80.3453 106.907 80.7107C107.916 80.8525 110.463 80.0345 110.561 81.3543L104.6 82.0197C104.666 80.8253 104.568 79.4509 103.886 78.4365C103.144 77.3458 101.923 77.793 101.955 76.7295ZM103.286 89.295L101.966 90.6148C101.786 89.2241 101.895 89.115 103.286 89.295ZM101.05 92.0164C104.061 91.9292 106.869 90.8875 109.902 91.2802C109.683 92.5073 108.56 92.42 107.665 92.6818C104.971 93.4508 102.086 94.1489 99.3103 94.5797L101.05 92.0164ZM102.621 109.796H103.941V110.45H102.621V109.796ZM91.6913 105.165C93.3384 105.078 95.0181 105.22 96.6597 105.165C96.8506 105.984 95.3945 106.262 94.86 106.338C94.0528 106.463 90.9496 106.698 90.6988 106.485C89.8207 105.744 90.606 105.22 91.6859 105.165H91.6913ZM82.1091 121.429C79.6985 122.094 75.4391 120.551 72.8322 121.036C73.2957 117.48 77.217 117.409 79.6276 116.253C80.7347 115.729 81.7382 114.879 82.9598 114.295C84.1215 113.744 87.2683 112.97 87.9282 112.315C88.9317 111.339 87.8791 109.305 88.0537 109.13C88.3209 108.858 94.391 107.941 95.5253 107.669C96.3816 107.456 97.096 106.687 97.7559 106.578C98.5522 106.453 101.672 108.051 101.955 109.119C101.099 109.059 100.537 109.61 99.8993 110.041C96.447 112.359 85.1413 120.583 82.1091 121.423V121.429ZM104.939 112.441C103.286 112.474 101.623 112.419 99.9756 112.441L101.955 111.41L107.256 111.781C107.415 112.926 105.746 112.424 104.939 112.435V112.441ZM113.212 110.456H109.902V109.801C111.434 109.463 112.536 108.476 113.212 110.456ZM125.783 94.5742H124.463V93.9252H125.783V94.5742Z" fill="#CC2530"/>
<path d="M205.222 11.9059C200.221 12.2822 195.384 10.6242 190.361 11.2732C187.274 11.6659 184.056 14.1746 181.198 15.3472C179.709 15.9526 177.021 15.8271 179.709 17.8777C182.251 19.8084 187.639 18.8703 188.01 19.1757C188.125 19.2685 186.674 21.4772 186.505 21.6354C184.411 23.626 177.642 26.9965 174.774 28.0981C173.465 28.5999 170.912 29.5107 169.636 29.6306C168.311 29.7561 163.119 28.5617 161.499 28.1309C144.053 23.4733 136.33 12.7457 122.025 4.07969C112.426 -1.7395 105.085 -0.33242 94.5268 2.15996C90.4746 3.11437 86.9242 4.94138 82.9375 5.78672C81.6286 6.06486 80.0579 6.15212 78.5418 6.28847C78.0836 6.3321 78.0509 6.9811 78.4981 7.07381L79.4471 7.26469L76.3221 9.10262C74.7896 9.12989 73.3552 9.77889 71.8554 9.92614C70.2793 10.0843 66.8216 9.30441 66.8761 10.4879C66.8979 10.9133 67.3233 11.2078 67.7487 11.1532L71.5337 10.6515C71.8991 10.6024 72.2426 10.8369 72.3299 11.1969C72.4172 11.5623 72.8044 11.7695 73.1589 11.6441C87.6659 6.30483 106.912 -1.20502 121.387 8.01732C136.494 17.6378 141.287 24.9022 160.185 30.1051C162.639 30.7814 165.611 31.414 168.153 31.7303C168.665 32.8211 166.495 34.0373 166.833 34.37C167.662 35.1935 169.462 32.4175 170.149 32.0685C170.994 31.6431 172.02 31.7685 172.794 31.414C178.559 28.7744 184.22 25.344 188.654 20.8064L195.291 21.15C195.667 23.0479 188.425 28.8726 189.341 29.7506C190.431 30.7923 193.873 25.5239 194.664 24.8204C195.787 23.8169 199.054 22.6444 199.256 22.4535C199.927 21.8045 197.336 18.4449 199.447 18.3522L201.252 16.5252L196.616 17.8396C198.519 15.3963 194.233 17.076 194.636 16.1925C195.378 14.5509 202.037 15.369 203.946 14.2237C204.715 13.7656 203.864 12.7621 204.011 12.6312C204.371 12.2985 205.484 13.0293 205.228 11.895L205.222 11.9059ZM195.291 13.8856L185.365 15.2108C186.385 17.5723 188.763 16.3507 190.448 15.9798C191.74 15.7017 191.304 16.1434 191.326 17.196H182.054C184.1 14.8727 189.357 12.9748 192.318 12.8766C192.777 12.8657 195.514 12.9912 195.291 13.8856Z" fill="#CC2530"/>
<path d="M261.484 18.5158C261.238 18.2594 255.561 20.7136 254.868 17.8613L260.164 18.5158L258.364 17.3432C248.651 16.7269 238.823 15.4726 229.912 11.3713C222.898 8.13723 219.462 4.01417 210.818 4.60318C205.555 4.96313 200.178 8.51354 194.637 7.94089L197.276 9.2607L195.957 10.5805C204.017 8.09905 211.811 4.46138 220.242 7.80455C229.159 11.3386 234.357 15.4235 244.653 17.1523C248.476 17.7904 253.745 16.4106 255.545 20.8173L258.179 21.8262C257.159 23.8714 254.601 25.2894 252.414 25.6493C243.59 27.1164 232.055 24.4658 224.245 27.9344C222.713 28.6162 221.551 30.2523 219.784 30.4268L220.886 32.3029C229.492 33.9881 238.365 36.2787 247.14 34.3972L248.247 32.4065L246 32.4393C245.319 32.3193 245.995 30.5359 244.615 31.0867C243.301 31.6048 244.364 32.9901 244.282 33.0664C243.115 34.1081 242.957 32.2757 242.608 31.7848C240.912 29.3906 237.34 29.2052 234.673 29.0961C233.571 29.047 232.83 28.5016 233.686 27.7763C234.057 27.4654 241.839 27.7763 243.284 27.7763C243.961 27.7763 246.764 29.0688 247.942 29.0688C248.525 29.0688 253.848 27.0564 254.672 26.5819C257.126 25.1639 258.539 22.4207 261.184 21.1881C261.56 20.6591 261.642 18.6794 261.489 18.5158H261.484ZM225.571 32.2538L222.435 31.0922L227.725 31.7466L225.576 32.2484L225.571 32.2538ZM238.976 33.0664H235.671V32.412H238.976V33.0664ZM238.311 30.4268L234.826 30.8522L230.375 29.7615L233.686 31.0813C234.171 33.6882 230.773 31.9648 229.53 31.5939L225.74 29.7615C227.147 30.0887 229.006 28.6216 230.054 28.6543C230.703 28.6762 231.406 29.4997 232.142 29.6415C234.138 30.0341 236.282 29.4779 238.305 30.4268H238.311Z" fill="#CC2530"/>
<path d="M93.3491 45.6374C92.94 46.0464 91.2385 44.9611 90.7422 44.6066C89.695 43.8758 84.3013 37.4949 83.7504 36.3769C83.3032 35.4879 83.3905 34.6699 83.4232 33.7318C88.3207 34.8389 92.3674 35.0244 93.0109 40.9581C93.0982 41.7543 92.651 42.4688 92.7001 43.265C92.7382 43.9086 93.6708 45.3156 93.3491 45.632V45.6374Z" fill="#CC2530"/>
<path d="M230.37 17.196L226.786 17.2288L226.039 15.8271C225.363 15.958 224.747 16.427 224.054 16.4979C222.778 16.6397 219.833 17.2451 220.444 15.2109C222.56 15.5981 225.712 12.6149 227.419 12.7239C228.095 12.773 230.839 16.7706 230.37 17.196Z" fill="#CC2530"/>
<path d="M216.468 34.0645C212.182 37.5768 206.542 34.19 201.912 35.717C202.239 34.5772 203.663 34.01 204.219 33.0447C204.432 32.6684 204.666 29.707 205.882 31.0922C206.002 31.2231 205.266 32.0794 205.506 32.4284C205.697 32.712 210.982 34.8826 211.631 34.9317C212.945 35.0353 214.903 32.7229 216.468 34.07V34.0645Z" fill="#CC2530"/>
<path d="M173.476 47.3227C173.149 47.8244 170.678 50.7476 170.16 51.2821C169.615 51.8329 167.319 53.4036 166.828 52.9128C166.31 52.3947 169.009 49.2478 169.151 48.288C169.985 47.339 171.567 47.1972 172.489 46.3301C173.318 45.5556 173.094 44.274 174.108 44.3122C174.267 45.572 174.174 46.2428 173.476 47.3172V47.3227Z" fill="#CC2530"/>
<path d="M124.457 73.4191C123.383 73.6154 123.694 71.7229 123.781 71.0848C123.907 70.0486 124.016 69.4651 124.55 68.5488C125.068 67.6708 128.908 65.2711 129.093 65.4838C130.527 67.1036 123.803 71.1012 124.457 73.4191Z" fill="#CC2530"/>
<path d="M171.169 65.5219C170.684 65.9091 167.804 67.0926 167.493 66.8036C166.795 66.1546 170.193 62.9804 170.777 62.4842C175.429 58.5683 173.22 63.8694 171.169 65.5219Z" fill="#CC2530"/>
<path d="M52.3092 78.0438C51.9656 77.7656 55.1888 74.3788 56.2795 75.4041C57.3594 76.4185 53.2145 78.78 52.3092 78.0438Z" fill="#CC2530"/>
<path d="M89.3786 54.898C87.6279 54.1399 87.3934 52.5365 88.0642 50.9276C89.444 51.1621 89.3622 53.7963 89.3786 54.898Z" fill="#CC2530"/>
<path d="M129.093 74.0789L126.448 78.7037C125.128 78.791 125.968 77.4875 126.306 76.9149C126.955 75.8078 127.893 74.6134 129.093 74.0844V74.0789Z" fill="#CC2530"/>
<path d="M225.074 23.1461L220.444 25.7911L222.195 23.8005L225.074 23.1461Z" fill="#CC2530"/>
<path d="M123.137 77.3839H122.483C122.919 73.0263 124.403 72.7646 123.137 77.3839Z" fill="#CC2530"/>
<path d="M70.8413 58.8683H69.5215V59.5228H70.8413V58.8683Z" fill="#CC2530"/>
<path d="M235.338 18.5212H234.673C234.492 18.5212 234.346 18.6665 234.346 18.8457C234.346 19.025 234.492 19.1702 234.673 19.1702H235.338C235.519 19.1702 235.666 19.025 235.666 18.8457C235.666 18.6665 235.519 18.5212 235.338 18.5212Z" fill="#CC2530"/>
<path d="M115.857 91.9345H115.202V93.2543H115.857V91.9345Z" fill="#CC2530"/>
<path d="M101.955 109.13C101.104 109.065 100.537 109.621 99.8933 110.052C96.4465 112.364 85.1353 120.594 82.103 121.429C79.6979 122.094 75.4331 120.551 72.8262 121.036C73.2897 117.475 77.2165 117.404 79.6216 116.253C80.7287 115.724 81.7322 114.873 82.9538 114.29C84.11 113.739 87.2569 112.964 87.9222 112.315C88.9257 111.339 87.8786 109.299 88.0422 109.13C88.3094 108.858 94.3795 107.941 95.5139 107.663C96.3701 107.456 97.09 106.682 97.7445 106.578C98.5407 106.453 101.66 108.051 101.944 109.119L101.955 109.13Z" fill="#CC2530"/>
<path d="M104.605 71.4338V73.4136C103.269 73.9699 102.233 72.3774 101.649 72.3337C100.575 72.2519 97.1992 72.6446 95.6339 72.7264C94.4559 72.7864 92.798 73.5226 92.6889 73.419C91.8654 72.6555 93.3979 71.7174 94.3632 71.4557C98.1318 70.4304 100.82 71.6575 104.605 71.4338Z" fill="#CC2530"/>
<path d="M109.901 91.2801C109.683 92.5072 108.56 92.42 107.665 92.6763C104.977 93.4508 102.086 94.1488 99.3101 94.5797L101.044 92.0164C104.055 91.9237 106.864 90.8875 109.901 91.2747V91.2801Z" fill="#CC2530"/>
<path d="M107.916 78.0438C104.425 77.0185 104.322 80.3399 106.907 80.7107C107.916 80.8525 110.463 80.0345 110.561 81.3543L104.605 82.0196C104.665 80.8198 104.572 79.4509 103.885 78.4365C103.149 77.3457 101.927 77.7929 101.96 76.7295C103.913 76.9749 106.989 75.8078 107.916 78.0438Z" fill="#CC2530"/>
<path d="M111.886 86.6499L103.286 87.9697V85.99C106.182 86.2627 108.936 86.9826 111.886 86.6554V86.6499Z" fill="#CC2530"/>
<path d="M96.6594 105.165C96.8558 105.984 95.3942 106.262 94.8651 106.338C94.0525 106.458 90.9602 106.692 90.7094 106.48C89.8313 105.738 90.6112 105.209 91.691 105.16C93.3381 105.078 95.0178 105.215 96.6594 105.16V105.165Z" fill="#CC2530"/>
<path d="M107.251 111.781C107.409 112.932 105.734 112.424 104.938 112.441C103.286 112.474 101.622 112.419 99.9697 112.441L101.944 111.415L107.245 111.786L107.251 111.781Z" fill="#CC2530"/>
<path d="M108.576 84.0048L103.28 84.6593C104.278 82.0742 106.76 84.4193 108.576 84.0048Z" fill="#CC2530"/>
<path d="M113.212 110.456H109.901V109.801C111.428 109.463 112.53 108.476 113.212 110.456Z" fill="#CC2530"/>
<path d="M103.94 62.1733H100.635V62.8277H103.94V62.1733Z" fill="#CC2530"/>
<path d="M104.6 95.9103H101.295V96.5648H104.6V95.9103Z" fill="#CC2530"/>
<path d="M103.281 89.295L101.961 90.6149C101.781 89.2241 101.89 89.1151 103.281 89.295Z" fill="#CC2530"/>
<path d="M115.197 81.3542H113.212V82.0087H115.197V81.3542Z" fill="#CC2530"/>
<path d="M131.078 83.3395H130.424V84.6593H131.078V83.3395Z" fill="#CC2530"/>
<path d="M112.546 81.3542H111.227V82.0087H112.546V81.3542Z" fill="#CC2530"/>
<path d="M101.295 76.0641V76.7186C97.8376 76.2168 97.5376 74.6516 101.295 76.0641Z" fill="#CC2530"/>
<path d="M108.571 55.5579H107.917V56.8777H108.571V55.5579Z" fill="#CC2530"/>
<path d="M125.783 93.9252H124.463V94.5797H125.783V93.9252Z" fill="#CC2530"/>
<path d="M103.94 109.796H102.621V110.45H103.94V109.796Z" fill="#CC2530"/>
<path d="M182.049 17.196C184.094 14.8782 189.352 12.9748 192.313 12.8821C192.771 12.8657 195.509 12.9966 195.286 13.891L185.36 15.2217C186.38 17.5778 188.752 16.3561 190.443 15.9907C191.735 15.7126 191.299 16.1489 191.315 17.2015H182.049V17.196Z" fill="#CC2530"/>
<path d="M238.316 30.4269L234.826 30.8523L230.375 29.767L233.691 31.0868C234.171 33.6937 230.779 31.9703 229.535 31.594L225.745 29.767C227.158 30.0887 229.012 28.6217 230.059 28.6599C230.713 28.6817 231.412 29.5052 232.148 29.647C234.144 30.0397 236.287 29.4779 238.316 30.4269Z" fill="#CC2530"/>
<path d="M238.976 32.412H235.671V33.0665H238.976V32.412Z" fill="#CC2530"/>
<path d="M227.725 31.7522L225.571 32.2484L222.429 31.0868L227.725 31.7522Z" fill="#CC2530"/>
</svg>
