<?xml version="1.0" encoding="UTF-8"?>
<svg id="Capa_2" data-name="Capa 2" xmlns="http://www.w3.org/2000/svg" viewBox="0 0 311.07 251.57">
  <defs>
    <style>
      .cls-1 {
        fill: #cd202a;
      }
    </style>
  </defs>
  <g id="Capa_1-2" data-name="Capa 1">
    <g>
      <path class="cls-1" d="M292.96,65.28c-7.38-4.51-15.2-8.3-23.32-11.3-1.91,7.95-3.81,15.9-5.71,23.85,8.19,2.92,15.54,6.07,23.32,9.98,1.89-7.52,3.79-15.03,5.71-22.53Z"/>
      <path class="cls-1" d="M252.52,126.29c8.09,2.16,15.52,4.6,23.33,7.64,1.89-7.74,3.79-15.49,5.71-23.23-7.8-3.46-15.18-6.24-23.33-8.76-1.91,8.11-3.81,16.23-5.71,24.34Z"/>
      <path class="cls-1" d="M129.94,28.17c-1.03,4.22-2.06,8.44-3.1,12.66,5.15-2.12,10.37-3.68,15.62-4.66,2.85-.51,5.65-.86,8.35-1.02-7.15-2-13.86-4.25-20.87-6.98Z"/>
      <path class="cls-1" d="M223.49,147.36c7.78.77,15.67,1.9,23.32,3.49,1.9-8.19,3.8-16.38,5.71-24.56-7.75-1.66-15.44-3.19-23.32-4.1-1.91,8.39-3.81,16.78-5.71,25.17Z"/>
      <path class="cls-1" d="M223.01,44c1.96,2.21,3.77,4.6,5.41,7.15,1.8,2.84,3.35,6.03,4.49,9.23.62,1.77,1.37,4.17,1.56,6.9.1,1.33.01,2.65-.24,3.91,2.14.3,4.27.64,6.39,1.01-1.91,8.31-3.81,16.61-5.71,24.93,7.92,1.08,15.58,2.87,23.32,4.81,1.9-8.04,3.8-16.07,5.71-24.1-7.72-2.25-15.36-4.34-23.31-5.63,1.9-8.25,3.8-16.5,5.71-24.76-7.66-1.58-15.54-2.68-23.32-3.45Z"/>
      <path class="cls-1" d="M221.1,95.44c-.15,7.8-1.1,16.65-2.8,25.56,3.64.35,7.28.73,10.91,1.19,1.9-8.36,3.8-16.71,5.71-25.06-4.58-.67-9.19-1.22-13.81-1.69Z"/>
      <path class="cls-1" d="M303.13,46.53c-10.29-4.12-29.26-11.43-40.56-14.09-7.96-1.88-25.71-3.56-44.5-5.34-4.81-.46-9.63-.91-14.28-1.37-8.04-.8-18.14-1.85-25.05-2.94-2.63-.42-4.6-.8-6.03-1.16-14.65-3.71-48.82-19.57-49.16-19.73l-4.09-1.9-18.17,52.09-.98,2.8c.33.54.62,1.1.88,1.68,1.31-1.08,2.62-2.13,3.95-3.14,1.89-1.44,3.8-2.8,5.73-4.07l13.32-38.19c9.42,4.28,32.61,14.55,45.32,18.05,2.82-1.07,5.69-1.88,8.58-2.4,2.68-.49,5.37-.74,8.04-.74h0c.16,0,.31,0,.47,0h.73l.17.02c5.45.29,10.8,1.56,15.87,3.68,3.19,1.33,6.27,3,9.19,4.99,1.57.15,3.15.3,4.72.44,17.69,1.68,35.98,3.41,43.4,5.15,10.8,2.54,29.32,9.69,39.4,13.73,2.04.82,3.18,2.97,2.71,5.12l-23.38,106.25c-.29,1.3-1.1,2.37-2.27,3-1.17.62-2.5.7-3.74.21-12-4.72-27.94-10.6-35.63-11.8-4.33-.67-14.52-1.47-29.55-2.61-.55,1.3-1.13,2.62-1.73,3.96-.59,1.3-1.22,2.62-1.86,3.95l1.56.11c12.71.96,25.86,1.96,30.35,2.65,5.43.84,17.47,4.86,33.9,11.32,1.49.59,3.06.87,4.63.87,2.05,0,4.09-.5,5.93-1.48,3.27-1.73,5.6-4.81,6.4-8.44l23.38-106.25c1.33-6.06-1.88-12.13-7.64-14.44Z"/>
      <path class="cls-1" d="M46.5,209.19l-12.89,36.97c-.74,2.13.38,4.45,2.51,5.19.44.16.9.23,1.34.23,1.68,0,3.26-1.05,3.85-2.74l11.71-33.59c-1.1-1-2.19-2-3.27-3-1.1-1.02-2.18-2.04-3.25-3.06Z"/>
      <path class="cls-1" d="M146.67,184.92s.04,0,.07,0h-.02s.01,0,.02,0h-.12s0,0,.01,0h0s.04,0,.05,0Z"/>
      <path class="cls-1" d="M49.75,212.25c1.07,1,2.16,2,3.27,3l-6.52-6.06c1.07,1.02,2.15,2.04,3.25,3.06Z"/>
      <path class="cls-1" d="M159.51,88.7s.03,0,.04,0h-.01s0,0,.01,0h-.07s0,0,0,0h0s.02,0,.03,0Z"/>
      <path class="cls-1" d="M209.12,77.72c-1.07-2.44-3.91-3.55-6.35-2.48-2.44,1.07-3.55,3.91-2.48,6.35,1.65,3.75,2.75,24.62-4.51,49.41-6.49,22.14-21.37,53.36-55.4,76.37l-36.29,24.42c-13.62-9.57-75.76-55.19-90.12-99.92-8.77-27.31-2.53-45.69,4.25-56.3,5.98-9.36,17.55-19.49,29.91-21.02,18.93-2.34,36.28,11.42,36.45,11.56,2.07,1.67,5.1,1.36,6.78-.71,1.68-2.07,1.36-5.1-.71-6.78-.83-.67-20.64-16.48-43.7-13.63-13.61,1.68-28.07,11.65-36.85,25.4-7.89,12.36-15.22,33.57-5.31,64.44,7.23,22.5,25.73,47.35,54.99,73.85,21.58,19.55,40.79,32.43,41.6,32.97l2.69,1.79,41.71-28.07c36.42-24.62,52.33-57.99,59.26-81.64,7.49-25.55,7.19-48.93,4.09-55.99Z"/>
      <path class="cls-1" d="M224.58,78.01s-.06,0-.09,0h.24c-.05,0-.1,0-.15,0Z"/>
      <path class="cls-1" d="M56.37,142.87c.15.24,4.52,2.47,5.16,2.47.03,0,.05,0,.06,0,.44-.7-.45-4.13-.67-4.31-.18-.16-.52-.23-.93-.23-1.58,0-4.28,1.06-3.62,2.09Z"/>
      <path class="cls-1" d="M111.21,84.83c.35,2.88,4.9-1.22,7.8-1.42,2.27-.16,4.05,1.28,6.02,1.79,1.01.26,1.94-.61,1.79-1.64-1.27-8.7-16.56-6.61-15.61,1.28Z"/>
      <path class="cls-1" d="M228.49,73.3c-.1-1.52-.54-3-1.04-4.4-.88-2.5-2.11-5.03-3.53-7.27-7.32-11.37-19.55-19.91-33.45-20.59-8.2-.17-16.18,2.63-22.92,7.2-5.22-2.16-11.86-2.85-19.54-1.94-11.8,1.4-24.82,6.33-36.66,13.88-15.07,9.62-16.14,17.41-17.17,24.94-.07.47-.13.95-.2,1.42-.6,4.14-1.48,8.17-5.39,13.09-6.66,8.39-23.03,21.14-35.95,30.61-.02.01-.03.02-.04.04-3.4,2.48-6.55,4.75-9.24,6.64-.04.01-.07.04-.11.06-.53.24-.99.57-1.37.98-1.14,1.24-1.5,3.11-.63,4.71.66,1.16,1.4,2.23,2.22,3.23,8.79,10.68,26.23,12.35,38.84,8.85,14.59-3.96,28.06-11.6,41.47-18.02,4.88-2.31,9.82-4.75,15-6.08.39-.1,1.21-.28,1.61-.33,3.04-.63,5.54.97,7.81,3.23,12.74,14.34,7.51,38,.36,54.04-.94,2.34,2.37,3.71,3.43,1.56,8.2-17.61,13.79-42.7-.31-58.94-2.62-2.84-6.11-4.92-10.02-5.01.03,0,.05,0,.08,0-.02,0-.03,0-.04,0-.05,0-.1,0-.16,0-.94-.01-1.91.09-2.89.32-6.04,1.25-11.61,3.89-17.15,6.38-11.34,5.23-22.15,10.88-33.8,14.87-4.47,1.51-9.11,2.79-13.75,3.2-6.69.44-13.84-.53-19.74-3.8-1.94-1.12-3.71-2.52-5.12-4.19,13.45-9.54,36.57-26.69,45.33-37.72,3.81-4.8,5.41-9.05,6.26-12.89.41-1.83.65-3.57.88-5.23.91-6.67,1.63-11.92,13.81-19.7,21.69-13.84,46.47-17.9,54.58-8.43.09-.09,3.7-2.77,5.65-4.01,8.27-5.23,18.08-6.6,27.6-1.99,8.69,4.06,16.5,11.35,19.63,20.57-.68-.16-1.42-.39-2.19-.61-13.52-4.51-21.66-4.64-33.16,4.52-5,3.88-9.19,8.26-14.59,11.27-3.24,1.75-6.55,3.5-9.94,4.87-.85.34-.4,1.64.48,1.35,4.75-1.73,9.41-3.67,13.76-6.24,4.33-2.71,8.12-5.98,12.12-8.76,9.11-6.48,15.91-7.49,26.27-3.57l3.47,1.28c1.51.52,3.48,1.34,5.38,1.3h.09c2.63-.04,4.19-2.25,4-4.7Z"/>
    </g>
  </g>
</svg>