<svg width="602" height="235" viewBox="0 0 602 235" fill="none" xmlns="http://www.w3.org/2000/svg">
<path d="M592.456 165.721C593.499 165.721 594.384 166.107 595.109 166.878C595.88 167.649 596.47 168.942 596.878 170.756L598.852 181.438C599.305 183.706 599.35 185.543 598.987 186.949C598.624 188.355 597.717 189.309 596.266 189.808C594.905 190.306 593.589 190.216 592.319 189.535C591.095 188.855 589.893 187.743 588.714 186.201C585.811 182.074 582.726 179.125 579.46 177.356C576.239 175.542 573.018 174.635 569.798 174.635C567.213 174.635 565.308 175.156 564.083 176.199C562.904 177.242 562.313 178.513 562.313 180.01C562.314 180.917 562.519 181.778 562.927 182.595C563.335 183.366 564.128 184.092 565.308 184.772C566.487 185.407 568.257 185.952 570.615 186.405C578.644 187.902 584.858 189.83 589.258 192.188C593.658 194.547 596.72 197.314 598.443 200.489C600.212 203.664 601.097 207.271 601.097 211.308C601.097 218.565 598.579 224.258 593.544 228.386C588.554 232.513 581.093 234.577 571.159 234.577C568.029 234.577 565.444 234.305 563.402 233.761C561.361 233.262 559.683 232.763 558.367 232.264C557.097 231.719 555.986 231.447 555.033 231.447C554.035 231.447 553.151 231.719 552.38 232.264C551.609 232.763 550.815 233.285 549.999 233.829C549.228 234.373 548.343 234.646 547.345 234.646C546.166 234.645 545.191 234.282 544.42 233.557C543.694 232.831 543.036 231.583 542.446 229.814L539.385 219.133C538.568 216.638 538.364 214.596 538.772 213.009C539.181 211.421 540.11 210.355 541.562 209.811C543.104 209.221 544.578 209.199 545.984 209.743C547.39 210.287 548.638 211.331 549.727 212.873C551.722 215.685 553.741 218.044 555.782 219.949C557.823 221.854 559.978 223.306 562.246 224.304C564.559 225.256 567.009 225.732 569.594 225.732C572.315 225.732 574.357 225.188 575.718 224.1C577.124 222.966 577.827 221.491 577.827 219.677C577.827 218.497 577.509 217.477 576.874 216.615C576.284 215.708 575.128 214.914 573.404 214.233C571.726 213.553 569.254 212.918 565.988 212.328C559.456 211.239 554.217 209.607 550.271 207.43C546.324 205.207 543.489 202.485 541.766 199.265C540.042 196.044 539.181 192.325 539.181 188.106C539.181 183.571 540.405 179.624 542.854 176.268C545.304 172.911 548.683 170.325 552.992 168.511C557.301 166.651 562.201 165.721 567.689 165.721C571.182 165.721 573.971 165.994 576.058 166.538C578.144 167.082 579.8 167.627 581.024 168.171C582.249 168.715 583.315 168.987 584.223 168.987C585.311 168.987 586.287 168.715 587.148 168.171C588.01 167.627 588.85 167.082 589.666 166.538C590.528 165.994 591.458 165.721 592.456 165.721ZM37.2861 165.721C44.0446 165.721 49.7597 166.878 54.4316 169.191C59.1037 171.459 62.6418 174.566 65.0459 178.513C67.4499 182.414 68.6523 186.813 68.6523 191.712C68.6523 194.887 67.7451 197.36 65.9307 199.129C64.1617 200.852 61.6216 201.714 58.3105 201.714H26.3359C27.2378 205.015 28.6643 207.692 30.6182 209.743C34.2923 213.553 39.2591 215.458 45.5186 215.458C48.5577 215.458 51.3475 215.027 53.8877 214.165C56.4731 213.258 58.832 211.738 60.9639 209.606C62.1881 208.564 63.118 207.861 63.7529 207.498C64.3879 207.135 65.0232 206.953 65.6582 206.953C66.4747 206.998 67.1329 207.407 67.6318 208.178C68.1308 208.903 68.3799 209.925 68.3799 211.24C68.3798 215.368 67.0192 219.2 64.2979 222.738C61.6217 226.276 57.8793 229.134 53.0713 231.312C48.2632 233.489 42.6383 234.577 36.1973 234.577C29.1665 234.577 22.9295 233.217 17.4863 230.495C12.0433 227.728 7.75676 223.873 4.62695 218.929C1.54248 213.984 0 208.246 0 201.714C4.5325e-05 194.547 1.45152 188.265 4.35449 182.867C7.25747 177.469 11.476 173.274 17.0098 170.28C22.589 167.241 29.3482 165.721 37.2861 165.721ZM336.927 165.721C344.547 165.721 351.192 167.195 356.862 170.144C362.532 173.047 366.933 177.107 370.062 182.323C373.192 187.494 374.757 193.527 374.757 200.422C374.757 206.863 373.101 212.669 369.79 217.84C366.524 222.965 361.966 227.048 356.114 230.087C350.308 233.081 343.572 234.577 335.906 234.577C328.331 234.577 321.708 233.126 316.038 230.223C310.368 227.274 305.946 223.192 302.771 217.976C299.641 212.759 298.076 206.704 298.076 199.81C298.076 193.369 299.709 187.585 302.975 182.459C306.286 177.333 310.845 173.274 316.65 170.28C322.502 167.241 329.261 165.721 336.927 165.721ZM499.611 165.721C506.37 165.721 512.085 166.878 516.757 169.191C521.429 171.459 524.967 174.566 527.371 178.513C529.775 182.414 530.977 186.813 530.978 191.712C530.978 194.887 530.07 197.36 528.256 199.129C526.487 200.852 523.947 201.714 520.636 201.714H488.661C489.563 205.015 490.989 207.692 492.943 209.743C496.617 213.553 501.584 215.458 507.844 215.458C510.883 215.458 513.673 215.027 516.213 214.165C518.798 213.258 521.157 211.738 523.289 209.606C524.513 208.564 525.443 207.861 526.078 207.498C526.713 207.135 527.348 206.953 527.983 206.953C528.8 206.998 529.458 207.407 529.957 208.178C530.456 208.903 530.705 209.925 530.705 211.24C530.705 215.368 529.344 219.2 526.623 222.738C523.947 226.276 520.205 229.134 515.396 231.312C510.588 233.489 504.964 234.577 498.522 234.577C491.492 234.577 485.255 233.217 479.812 230.495C474.369 227.728 470.082 223.873 466.952 218.929C463.868 213.984 462.325 208.246 462.325 201.714C462.325 194.547 463.777 188.265 466.68 182.867C469.583 177.469 473.801 173.274 479.335 170.28C484.914 167.241 491.673 165.721 499.611 165.721ZM135.098 165.721C141.04 165.721 145.802 167.671 149.386 171.572C153.015 175.428 154.829 180.576 154.829 187.018V217.499C154.829 219.404 154.965 220.743 155.237 221.514C155.509 222.285 155.963 222.829 156.598 223.146L158.026 223.827C159.024 224.371 159.751 225.007 160.204 225.732C160.703 226.458 160.952 227.32 160.952 228.317C160.952 229.678 160.499 230.768 159.592 231.584C158.73 232.355 157.437 232.74 155.713 232.74H126.048C122.691 232.74 121.013 231.221 121.013 228.182C121.013 226.458 121.762 225.12 123.259 224.167L124.619 223.419C125.3 223.011 125.753 222.421 125.979 221.649C126.252 220.878 126.389 219.495 126.389 217.499V191.984C126.389 189.127 125.73 186.972 124.415 185.521C123.145 184.069 121.33 183.344 118.972 183.344C117.475 183.344 115.932 183.616 114.345 184.16C112.828 184.695 111.4 185.538 110.059 186.688V217.499C110.059 219.494 110.195 220.878 110.467 221.649C110.739 222.421 111.193 223.011 111.828 223.419L113.188 224.167C114.685 225.12 115.434 226.458 115.434 228.182C115.434 231.221 113.755 232.74 110.398 232.74H80.8018C79.0329 232.74 77.7173 232.355 76.8555 231.584C75.9936 230.768 75.5625 229.678 75.5625 228.317C75.5626 227.32 75.7896 226.458 76.2432 225.732C76.7421 225.007 77.4904 224.371 78.4883 223.827L79.8486 223.146C80.4837 222.784 80.9378 222.239 81.21 221.514C81.5274 220.743 81.6865 219.404 81.6865 217.499V187.766C81.6865 186.224 81.4814 185.135 81.0732 184.5C80.665 183.865 80.0756 183.412 79.3047 183.14L77.9443 182.663C77.0372 182.255 76.3339 181.756 75.835 181.166C75.3814 180.531 75.1544 179.738 75.1543 178.785C75.1543 177.606 75.4715 176.676 76.1064 175.995C76.7415 175.269 77.8758 174.589 79.5088 173.954L95.0898 168.103C97.2671 167.241 99.0367 166.629 100.397 166.266C101.758 165.903 103.119 165.721 104.479 165.721C106.294 165.721 107.677 166.266 108.63 167.354C109.582 168.398 110.059 169.758 110.059 171.437V178.043C114.615 174.055 118.697 171.149 122.306 169.327C126.978 166.923 131.242 165.721 135.098 165.721ZM244.515 137.484C253.314 137.484 260.89 138.664 267.24 141.022C273.591 143.381 278.467 146.67 281.869 150.889C285.271 155.107 286.972 160.074 286.972 165.789C286.972 170.325 285.611 174.362 282.89 177.9C280.213 181.393 276.289 184.137 271.118 186.133C269.907 186.6 268.635 187.009 267.302 187.367C269.913 187.851 272.364 188.504 274.656 189.331C280.235 191.281 284.59 194.048 287.72 197.632C290.85 201.17 292.415 205.275 292.415 209.947C292.415 216.751 289.489 222.262 283.638 226.48C277.832 230.654 268.851 232.74 256.694 232.74H202.262C200.176 232.74 198.634 232.287 197.636 231.38C196.638 230.427 196.139 229.18 196.139 227.638C196.139 225.007 197.363 223.169 199.812 222.126L202.33 221.105C203.464 220.607 204.326 219.994 204.916 219.269C205.506 218.543 205.8 217.522 205.8 216.207V153.95C205.8 152.635 205.506 151.636 204.916 150.956C204.326 150.23 203.464 149.618 202.33 149.119L199.812 148.099C197.363 147.055 196.139 145.219 196.139 142.588C196.139 141 196.638 139.753 197.636 138.846C198.634 137.939 200.175 137.484 202.262 137.484H244.515ZM419.433 167.694C421.065 167.694 422.336 168.079 423.243 168.851C424.15 169.622 424.603 170.733 424.604 172.185C424.604 173.092 424.444 173.886 424.127 174.566C423.809 175.201 423.333 175.769 422.698 176.268L421.542 177.084C420.862 177.628 420.544 178.218 420.589 178.853C420.634 179.488 421.065 180.373 421.882 181.507L429.229 191.35L433.789 185.453C435.286 183.457 435.943 181.733 435.762 180.281C435.58 178.785 434.764 177.673 433.312 176.947L432.156 176.335C431.204 175.791 430.5 175.201 430.047 174.566C429.593 173.886 429.366 173.092 429.366 172.185C429.366 170.733 429.82 169.622 430.728 168.851C431.68 168.08 432.95 167.694 434.537 167.694H452.363C453.996 167.694 455.267 168.08 456.174 168.851C457.081 169.622 457.535 170.733 457.535 172.185C457.535 173.182 457.263 174.045 456.719 174.771C456.22 175.451 455.312 176.199 453.997 177.016C451.82 178.104 449.823 179.579 448.009 181.438C446.24 183.253 443.881 185.975 440.933 189.604L434.338 197.954L449.71 217.84C451.116 219.609 452.182 220.901 452.908 221.718C453.679 222.534 454.473 223.238 455.289 223.827C456.196 224.508 456.899 225.166 457.398 225.801C457.943 226.436 458.215 227.252 458.215 228.25C458.215 229.656 457.739 230.768 456.786 231.584C455.879 232.355 454.609 232.74 452.977 232.74H418.071C416.439 232.74 415.146 232.355 414.193 231.584C413.241 230.768 412.765 229.633 412.765 228.182C412.765 227.229 412.946 226.436 413.309 225.801C413.717 225.166 414.261 224.644 414.941 224.235L416.303 223.691C417.165 223.329 417.573 222.829 417.527 222.194C417.482 221.559 417.029 220.629 416.167 219.404L408.232 208.438L404.056 214.029C402.196 216.433 401.312 218.361 401.402 219.812C401.538 221.264 402.264 222.353 403.579 223.079L405.212 224.031C406.074 224.53 406.732 225.12 407.186 225.801C407.639 226.436 407.865 227.252 407.865 228.25C407.865 229.611 407.412 230.699 406.505 231.516C405.598 232.287 404.327 232.672 402.694 232.672H384.596C383.008 232.672 381.761 232.287 380.854 231.516C379.947 230.699 379.493 229.611 379.493 228.25C379.493 227.252 379.765 226.345 380.31 225.528C380.899 224.712 381.966 223.873 383.508 223.011C385.05 222.285 386.434 221.401 387.658 220.357C388.883 219.269 390.152 217.953 391.468 216.411C392.783 214.824 394.303 212.941 396.026 210.764L403.132 201.53L389.358 182.323C388.224 180.781 387.136 179.624 386.093 178.853C385.095 178.082 384.097 177.446 383.1 176.947C382.011 176.403 381.217 175.769 380.718 175.043C380.264 174.272 380.037 173.319 380.037 172.185C380.037 170.779 380.491 169.69 381.398 168.919C382.351 168.103 383.621 167.694 385.208 167.694H419.433ZM336.11 177.969C334.477 176.517 332.799 175.995 331.075 176.403C329.488 176.812 328.263 177.991 327.401 179.941C326.54 181.847 326.153 184.636 326.244 188.311C326.335 191.939 326.993 196.521 328.218 202.055C329.397 207.407 330.713 211.762 332.164 215.118C333.616 218.475 335.158 220.879 336.791 222.33C338.469 223.736 340.17 224.235 341.894 223.827C343.481 223.419 344.706 222.239 345.567 220.289C346.429 218.293 346.815 215.481 346.725 211.853C346.634 208.178 345.976 203.642 344.751 198.244C343.572 192.846 342.256 188.469 340.805 185.112C339.353 181.756 337.789 179.375 336.11 177.969ZM237.03 214.302C237.03 217.25 237.825 219.45 239.412 220.901C241 222.307 243.245 223.011 246.147 223.011H249.481C251.976 223.011 254.131 222.466 255.945 221.378C257.805 220.289 259.212 218.679 260.164 216.547C261.162 214.415 261.661 211.852 261.661 208.858C261.661 204.05 260.278 200.285 257.511 197.563C254.744 194.842 250.888 193.481 245.943 193.481H237.03V214.302ZM33.4072 176.131C31.9105 176.131 30.5268 176.676 29.2568 177.765C28.0323 178.853 27.0347 180.554 26.2637 182.867C25.5379 185.181 25.1748 188.174 25.1748 191.849C25.1748 192.76 25.1994 193.645 25.2451 194.502H36.7412C39.2814 194.502 40.5518 193.255 40.5518 190.76C40.5518 185.543 39.8715 181.801 38.5107 179.533C37.1499 177.265 35.4484 176.131 33.4072 176.131ZM495.732 176.131C494.236 176.131 492.852 176.676 491.582 177.765C490.357 178.853 489.36 180.554 488.589 182.867C487.863 185.181 487.5 188.174 487.5 191.849C487.5 192.76 487.525 193.645 487.57 194.502H499.066C501.607 194.502 502.877 193.255 502.877 190.76C502.877 185.543 502.197 181.801 500.836 179.533C499.475 177.265 497.774 176.131 495.732 176.131ZM237.03 185.112H242.474C245.876 185.112 248.711 184.5 250.979 183.275C253.247 182.005 254.948 180.078 256.082 177.492C257.216 174.861 257.782 171.55 257.782 167.559C257.782 163.34 257.034 159.711 255.537 156.672C254.086 153.633 251.954 151.297 249.142 149.664C246.329 148.031 242.95 147.214 239.004 147.214H237.03V185.112ZM46.9473 7.48438C49.0338 7.48438 50.5763 7.93851 51.5742 8.8457C52.6174 9.75289 53.1387 11.0004 53.1387 12.5879C53.1386 15.2186 51.9142 17.0554 49.4648 18.0986L46.8799 19.1191C45.7915 19.618 44.952 20.2305 44.3623 20.9561C43.7726 21.6364 43.4775 22.6348 43.4775 23.9502V86.6826C43.4775 88.6783 43.9308 90.0849 44.8379 90.9014C45.745 91.6724 47.0607 92.0585 48.7842 92.0586H54.0234C56.3821 92.0586 58.4688 91.7175 60.2832 91.0371C62.1428 90.3567 63.8666 89.1552 65.4541 87.4316C67.0417 85.6626 68.6072 83.1678 70.1494 79.9473L74.5039 71.1016C75.3203 69.3783 76.3179 68.2445 77.4971 67.7002C78.7218 67.1105 80.1282 67.0425 81.7158 67.4961C83.3034 67.9043 84.4378 68.7206 85.1182 69.9453C85.8438 71.1246 85.9339 72.6673 85.3896 74.5723L79.2666 97.2969C78.4955 99.973 77.5431 101.947 76.4092 103.217C75.2752 104.487 73.5737 105.122 71.3057 105.122C70.0356 105.122 68.7882 104.918 67.5635 104.51C66.3841 104.102 65.0457 103.693 63.5488 103.285C62.052 102.922 60.2152 102.74 58.0381 102.74H8.64062C6.55452 102.74 5.01251 102.287 4.01465 101.38C3.0168 100.427 2.51765 99.1798 2.51758 97.6377C2.51758 95.0069 3.74205 93.1693 6.19141 92.126L8.70898 91.1055C9.84294 90.6065 10.7052 90.0173 11.2949 89.3369C11.8846 88.6112 12.1787 87.5899 12.1787 86.2744V23.9502C12.1787 22.6348 11.8846 21.6364 11.2949 20.9561C10.7052 20.2303 9.84292 19.6181 8.70898 19.1191L6.19141 18.0986C3.74223 17.0554 2.51766 15.2185 2.51758 12.5879C2.51758 11.0003 3.01673 9.75291 4.01465 8.8457C5.0125 7.93858 6.5543 7.48444 8.64062 7.48438H46.9473ZM130.373 35.8574C139.581 35.8575 146.43 37.604 150.921 41.0967C155.411 44.5894 157.657 49.375 157.657 55.4531V86.8867C157.657 87.6578 157.861 88.339 158.27 88.9287C158.678 89.4727 159.335 89.7451 160.242 89.7451C160.922 89.7451 161.467 89.586 161.875 89.2686C162.329 88.951 162.715 88.5879 163.032 88.1797C163.304 87.953 163.577 87.7488 163.849 87.5674C164.166 87.3861 164.529 87.295 164.937 87.2949C165.798 87.2949 166.434 87.613 166.842 88.248C167.295 88.8831 167.522 89.6543 167.522 90.5615C167.522 92.6025 166.797 94.7116 165.346 96.8887C163.94 99.0206 161.83 100.835 159.018 102.332C156.251 103.829 152.849 104.577 148.812 104.577C143.822 104.577 139.74 103.489 136.564 101.312C134.591 99.9301 133.231 98.3381 132.484 96.5361C130.44 98.8082 127.787 100.629 124.521 101.992C120.439 103.716 116.062 104.577 111.39 104.577C105.175 104.577 100.163 103.036 96.3525 99.9512C92.5877 96.8214 90.7061 92.92 90.7061 88.248C90.7061 82.0791 93.495 77.2026 99.0742 73.6191C104.699 69.9904 112.501 68.1758 122.48 68.1758C125.066 68.1758 127.311 68.3579 129.216 68.7207C129.307 68.7356 129.398 68.7529 129.488 68.7686V49.0566C129.488 47.3333 129.035 45.9724 128.128 44.9746C127.221 43.9313 125.995 43.4092 124.453 43.4092C123.274 43.4092 122.23 43.7043 121.323 44.2939C120.461 44.8836 120.03 45.6779 120.03 46.6758V52.8672C120.03 56.6321 118.738 59.558 116.152 61.6445C113.612 63.731 109.961 64.7744 105.198 64.7744C101.207 64.7744 98.2126 63.9351 96.2168 62.2568C94.2664 60.5332 93.291 58.1063 93.291 54.9766C93.291 52.0282 94.6515 49.0792 97.373 46.1309C100.095 43.1825 104.2 40.7337 109.688 38.7832C115.177 36.8327 122.072 35.8574 130.373 35.8574ZM200.16 19.2559C201.612 19.2559 202.769 19.709 203.631 20.6162C204.538 21.5234 204.991 22.8619 204.991 24.6309V37.6943H219.892C221.388 37.6943 222.568 38.0345 223.43 38.7148C224.292 39.3499 224.723 40.2802 224.723 41.5049C224.723 43.3644 223.838 44.9292 222.069 46.1992C220.346 47.4693 217.511 48.1045 213.564 48.1045H204.991V77.7021C204.991 80.8771 205.558 83.3042 206.692 84.9824C207.826 86.615 209.459 87.4316 211.591 87.4316C213.133 87.4316 214.38 87.0685 215.333 86.3428C216.286 85.617 217.08 84.7778 217.715 83.8252C218.395 82.8729 219.053 82.0112 219.688 81.2402C220.368 80.4691 221.185 80.038 222.138 79.9473C222.954 79.9021 223.634 80.2191 224.179 80.8994C224.723 81.5344 224.972 82.555 224.927 83.9609C224.881 87.7258 223.77 91.1739 221.593 94.3037C219.416 97.4334 216.421 99.9284 212.611 101.788C208.847 103.648 204.56 104.577 199.752 104.577C192.313 104.577 186.598 102.831 182.606 99.3379C178.615 95.7998 176.618 90.4021 176.618 83.1445V51.915C176.618 50.4183 176.369 49.3749 175.87 48.7852C175.371 48.1955 174.623 47.6503 173.625 47.1514L171.651 46.4033C170.654 45.9044 169.882 45.3151 169.338 44.6348C168.839 43.9544 168.59 43.115 168.59 42.1172C168.59 40.7565 169.043 39.69 169.95 38.9189C170.903 38.1025 172.105 37.6944 173.557 37.6943H177.095C177.911 37.6943 178.683 37.4452 179.408 36.9463C180.179 36.402 181.132 35.4945 182.266 34.2246L192.199 23.9502C193.56 22.4987 194.921 21.3643 196.282 20.5479C197.643 19.6862 198.936 19.2559 200.16 19.2559ZM346.83 0C348.644 7.32352e-05 350.028 0.544283 350.98 1.63281C351.978 2.72145 352.477 4.08287 352.477 5.71582V87.499C352.477 89.4041 352.614 90.7426 352.886 91.5137C353.158 92.2394 353.611 92.7836 354.246 93.1465L355.675 93.8271C356.673 94.3715 357.399 95.0067 357.853 95.7324C358.306 96.458 358.532 97.3198 358.532 98.3174C358.532 99.6781 358.102 100.768 357.24 101.584C356.378 102.355 355.085 102.74 353.361 102.74H336.147C333.244 102.74 330.682 101.697 328.459 99.6104C327.024 98.2634 326.054 96.7647 325.546 95.1152C323.994 96.6856 322.381 98.095 320.702 99.3379C315.985 102.831 310.61 104.577 304.577 104.577C299.225 104.577 294.439 103.217 290.221 100.495C286.002 97.7735 282.668 94.0083 280.219 89.2002C277.815 84.3467 276.612 78.7448 276.612 72.3945C276.612 65.0463 278.11 58.6281 281.104 53.1396C284.097 47.6059 288.157 43.3194 293.282 40.2803C298.453 37.2412 304.305 35.7207 310.837 35.7207C315.893 35.7207 320.293 36.7158 324.036 38.7061V22.1133C324.036 20.5258 323.832 19.4374 323.424 18.8477C323.016 18.2126 322.448 17.7355 321.723 17.418L320.294 16.9424C319.387 16.5795 318.684 16.0803 318.185 15.4453C317.731 14.8103 317.505 14.016 317.505 13.0635C317.505 11.9297 317.822 11.0001 318.457 10.2744C319.137 9.54865 320.272 8.86843 321.859 8.2334L337.44 2.38184C339.618 1.56541 341.386 0.975181 342.747 0.612305C344.108 0.204063 345.469 0 346.83 0ZM403.638 35.7207C411.258 35.7207 417.903 37.1952 423.573 40.1436C429.243 43.0466 433.644 47.1069 436.773 52.3232C439.903 57.4942 441.468 63.5274 441.468 70.4219C441.468 76.8628 439.812 82.6689 436.501 87.8398C433.235 92.9654 428.676 97.0478 422.825 100.087C417.019 103.081 410.283 104.577 402.617 104.577C395.042 104.577 388.419 103.126 382.749 100.223C377.079 97.2743 372.657 93.1918 369.481 87.9756C366.352 82.7594 364.787 76.704 364.787 69.8096C364.787 63.3685 366.42 57.5846 369.686 52.459C372.997 47.3335 377.556 43.274 383.361 40.2803C389.213 37.2412 395.972 35.7207 403.638 35.7207ZM259.16 35.7207C261.02 35.7207 262.426 36.2659 263.379 37.3545C264.377 38.3977 264.876 39.7583 264.876 41.4365V87.499C264.876 89.4041 265.012 90.7425 265.284 91.5137C265.602 92.2394 266.078 92.7836 266.713 93.1465L268.073 93.8271C269.071 94.3715 269.797 95.0067 270.251 95.7324C270.75 96.4581 270.999 97.3197 270.999 98.3174C270.999 99.6781 270.569 100.768 269.707 101.584C268.845 102.355 267.53 102.74 265.761 102.74H235.619C233.85 102.74 232.534 102.355 231.672 101.584C230.81 100.768 230.38 99.6781 230.38 98.3174C230.38 97.3198 230.606 96.458 231.06 95.7324C231.559 95.0067 232.308 94.3715 233.306 93.8271L234.666 93.1465C235.301 92.7836 235.755 92.2394 236.027 91.5137C236.345 90.7425 236.503 89.4039 236.503 87.499V57.7656C236.503 56.2236 236.299 55.135 235.891 54.5C235.482 53.8652 234.893 53.4118 234.122 53.1396L232.761 52.6631C231.854 52.2549 231.15 51.7557 230.651 51.166C230.198 50.5311 229.972 49.7374 229.972 48.7852C229.972 47.6058 230.289 46.6755 230.924 45.9951C231.559 45.2694 232.693 44.5891 234.326 43.9541L249.907 38.1025C252.175 37.2407 253.967 36.6285 255.282 36.2656C256.643 35.9028 257.936 35.7207 259.16 35.7207ZM402.821 47.9688C401.188 46.5172 399.51 45.9951 397.786 46.4033C396.199 46.8116 394.974 47.991 394.112 49.9414C393.25 51.8465 392.864 54.6364 392.955 58.3105C393.046 61.9393 393.704 66.5209 394.929 72.0547C396.108 77.407 397.424 81.7616 398.875 85.1182C400.326 88.4747 401.869 90.8786 403.502 92.3301C405.18 93.7361 406.881 94.2354 408.604 93.8271C410.192 93.4189 411.416 92.2395 412.278 90.2891C413.14 88.2933 413.526 85.4811 413.436 81.8525C413.345 78.1784 412.687 73.642 411.462 68.2441C410.283 62.8464 408.967 58.4689 407.516 55.1123C406.064 51.756 404.499 49.3749 402.821 47.9688ZM126.086 74.9121C124 74.9122 122.344 75.6375 121.119 77.0889C119.894 78.495 119.282 80.5138 119.282 83.1445C119.282 85.866 119.895 87.9528 121.119 89.4043C122.389 90.8557 124.045 91.582 126.086 91.582C127.335 91.582 128.469 91.3325 129.488 90.8359V75.416C129.305 75.355 129.124 75.2992 128.944 75.252C128.082 75.0252 127.129 74.9121 126.086 74.9121ZM316.688 47.3555C314.557 47.3555 312.674 48.1269 311.041 49.6689C309.408 51.1658 308.138 53.5247 307.23 56.7451C306.369 59.9656 305.938 64.1842 305.938 69.4004C305.938 74.3446 306.414 78.3599 307.366 81.4443C308.319 84.4832 309.612 86.7052 311.245 88.1113C312.878 89.5175 314.738 90.2207 316.824 90.2207C319.183 90.2207 321.338 89.4494 323.288 87.9072C323.54 87.7069 323.789 87.4917 324.036 87.2617V50.4316C323.512 49.9447 322.992 49.5313 322.472 49.1934C320.703 47.9687 318.775 47.3555 316.688 47.3555ZM249.362 3.60645C254.352 3.60645 258.298 4.78594 261.201 7.14453C264.104 9.50323 265.557 12.6783 265.557 16.6699C265.557 20.7523 264.104 23.9953 261.201 26.3994C258.298 28.7581 254.352 29.9375 249.362 29.9375C244.373 29.9374 240.404 28.758 237.456 26.3994C234.553 23.9953 233.102 20.7523 233.102 16.6699C233.102 12.6783 234.553 9.50323 237.456 7.14453C240.404 4.78596 244.373 3.60651 249.362 3.60645Z" fill="white"/>
</svg>
