<svg width="91" height="73" viewBox="0 0 91 73" fill="none" xmlns="http://www.w3.org/2000/svg">
<path d="M72.6667 40.875V31.7917H90.8333V40.875H72.6667ZM78.1167 72.6667L63.5833 61.7667L69.0333 54.5L83.5667 65.4L78.1167 72.6667ZM69.0333 18.1667L63.5833 10.9L78.1167 0L83.5667 7.26667L69.0333 18.1667ZM13.625 68.125V49.9583H9.08333C6.58542 49.9583 4.44705 49.0689 2.66823 47.2901C0.88941 45.5113 0 43.3729 0 40.875V31.7917C0 29.2937 0.88941 27.1554 2.66823 25.3766C4.44705 23.5977 6.58542 22.7083 9.08333 22.7083H27.25L49.9583 9.08333V63.5833L27.25 49.9583H22.7083V68.125H13.625ZM40.875 47.4604V25.2062L29.7479 31.7917H9.08333V40.875H29.7479L40.875 47.4604ZM54.5 51.5479V21.1187C56.5438 22.9354 58.1901 25.1495 59.4391 27.7609C60.688 30.3724 61.3125 33.2299 61.3125 36.3333C61.3125 39.4368 60.688 42.2943 59.4391 44.9057C58.1901 47.5172 56.5438 49.7312 54.5 51.5479Z" fill="#CC2530"/>
</svg>
