<?xml version="1.0" encoding="UTF-8"?>
<svg id="Capa_2" data-name="Capa 2" xmlns="http://www.w3.org/2000/svg" viewBox="0 0 32 32">
  <defs>
    <style>
      .cls-1 {
        fill: #cd202a;
      }

      .cls-2 {
        fill: #fff;
      }
    </style>
  </defs>
  <g id="Capa_2-2" data-name="Capa 2">
    <rect class="cls-1" width="32" height="32"/>
    <g id="Capa_1-2" data-name="Capa 1-2">
      <g>
        <path class="cls-2" d="M26.13,11.54c-.54-.33-1.12-.61-1.72-.83-.14.59-.28,1.17-.42,1.76.6.22,1.15.45,1.72.74.14-.55.28-1.11.42-1.66Z"/>
        <path class="cls-2" d="M23.15,16.04c.6.16,1.14.34,1.72.56.14-.57.28-1.14.42-1.71-.58-.26-1.12-.46-1.72-.65-.14.6-.28,1.2-.42,1.79h0Z"/>
        <path class="cls-2" d="M14.11,8.8c-.08.31-.15.62-.23.93.38-.16.76-.27,1.15-.34.21-.04.42-.06.62-.08-.53-.15-1.02-.31-1.54-.51h0Z"/>
        <path class="cls-2" d="M21.01,17.59c.57.06,1.16.14,1.72.26.14-.6.28-1.21.42-1.81-.57-.12-1.14-.24-1.72-.3-.14.62-.28,1.24-.42,1.86h0Z"/>
        <path class="cls-2" d="M20.98,9.97c.14.16.28.34.4.53.13.21.25.44.33.68.05.13.1.31.12.51,0,.1,0,.2-.02.29.16.02.31.05.47.07-.14.61-.28,1.22-.42,1.84.58.08,1.15.21,1.72.35.14-.59.28-1.19.42-1.78-.57-.17-1.13-.32-1.72-.42.14-.61.28-1.22.42-1.83-.56-.12-1.15-.2-1.72-.25h0Z"/>
        <path class="cls-2" d="M20.83,13.76c-.01.58-.08,1.23-.21,1.88.27.03.54.05.8.09.14-.62.28-1.23.42-1.85-.34-.05-.68-.09-1.02-.12h0Z"/>
        <path class="cls-2" d="M26.88,10.16c-.76-.3-2.16-.84-2.99-1.04-.59-.14-1.9-.26-3.28-.39-.35-.03-.71-.07-1.05-.1-.59-.06-1.34-.14-1.85-.22-.19-.03-.34-.06-.44-.09-1.08-.27-3.6-1.44-3.63-1.45l-.3-.14-1.34,3.84-.07.21s.05.08.06.12c.1-.08.19-.16.29-.23.14-.11.28-.21.42-.3l.98-2.82c.69.32,2.4,1.07,3.34,1.33.21-.08.42-.14.63-.18.2-.04.4-.05.59-.05h.1c.4.02.8.12,1.17.27.24.1.46.22.68.37.12.01.23.02.35.03,1.3.12,2.65.25,3.2.38.8.19,2.16.71,2.91,1.01.15.06.23.22.2.38l-1.72,7.84c-.02.1-.08.17-.17.22-.09.05-.18.05-.28.02-.88-.35-2.06-.78-2.63-.87-.32-.05-1.07-.11-2.18-.19-.04.1-.08.19-.13.29-.04.1-.09.19-.14.29h.12c.94.08,1.91.15,2.24.2.4.06,1.29.36,2.5.83.11.04.23.06.34.06.15,0,.3-.04.44-.11.24-.13.41-.35.47-.62l1.72-7.84c.1-.45-.14-.89-.56-1.06h0Z"/>
        <path class="cls-2" d="M7.96,22.15l-.95,2.73c-.05.16.03.33.19.38.03.01.07.02.1.02.12,0,.24-.08.28-.2l.86-2.48c-.08-.07-.16-.15-.24-.22-.08-.08-.16-.15-.24-.23Z"/>
        <path class="cls-2" d="M8.2,22.38c.08.07.16.15.24.22l-.48-.45c.08.08.16.15.24.23Z"/>
        <path class="cls-2" d="M19.95,12.46c-.08-.18-.29-.26-.47-.18s-.26.29-.18.47c.12.28.2,1.82-.33,3.64-.48,1.63-1.58,3.93-4.09,5.63l-2.68,1.8c-1-.71-5.59-4.07-6.65-7.37-.65-2.01-.19-3.37.31-4.15.44-.69,1.29-1.44,2.21-1.55,1.4-.17,2.68.84,2.69.85.15.12.38.1.5-.05s.1-.38-.05-.5c-.06-.05-1.52-1.22-3.22-1.01-1,.12-2.07.86-2.72,1.87-.58.91-1.12,2.48-.39,4.75.53,1.66,1.9,3.49,4.06,5.45,1.59,1.44,3.01,2.39,3.07,2.43l.2.13,3.08-2.07c2.69-1.82,3.86-4.28,4.37-6.02.55-1.88.53-3.61.3-4.13h0Z"/>
        <path class="cls-2" d="M8.69,17.26s.33.18.38.18h0c.03-.05-.03-.3-.05-.32-.01-.01-.04-.02-.07-.02-.12,0-.32.08-.27.15h0Z"/>
        <path class="cls-2" d="M12.73,12.98c.03.21.36-.09.58-.1.17-.01.3.09.44.13.07.02.14-.04.13-.12-.09-.64-1.22-.49-1.15.09h0Z"/>
        <path class="cls-2" d="M21.38,12.13c0-.11-.04-.22-.08-.32-.06-.18-.16-.37-.26-.54-.54-.84-1.44-1.47-2.47-1.52-.6-.01-1.19.19-1.69.53-.38-.16-.87-.21-1.44-.14-.87.1-1.83.47-2.7,1.02-1.11.71-1.19,1.28-1.27,1.84,0,.03,0,.07-.01.1-.04.31-.11.6-.4.97-.49.62-1.7,1.56-2.65,2.26,0,0,0,0,0,0-.25.18-.48.35-.68.49,0,0,0,0,0,0-.04.02-.07.04-.1.07-.08.09-.11.23-.05.35.05.09.1.16.16.24.65.79,1.93.91,2.86.65,1.08-.29,2.07-.86,3.06-1.33.36-.17.72-.35,1.11-.45.03,0,.09-.02.12-.02.22-.05.41.07.58.24.94,1.06.55,2.8.03,3.99-.07.17.17.27.25.12.6-1.3,1.02-3.15-.02-4.35-.19-.21-.45-.36-.74-.37h0-.01c-.07,0-.14,0-.21.02-.45.09-.86.29-1.26.47-.84.39-1.63.8-2.49,1.1-.33.11-.67.21-1.01.24-.49.03-1.02-.04-1.46-.28-.14-.08-.27-.19-.38-.31.99-.7,2.7-1.97,3.34-2.78.28-.35.4-.67.46-.95.03-.13.05-.26.06-.39.07-.49.12-.88,1.02-1.45,1.6-1.02,3.43-1.32,4.02-.62,0,0,.27-.2.42-.3.61-.39,1.33-.49,2.04-.15.64.3,1.22.84,1.45,1.52-.05-.01-.1-.03-.16-.04-1-.33-1.6-.34-2.45.33-.37.29-.68.61-1.08.83-.24.13-.48.26-.73.36-.06.03-.03.12.04.1.35-.13.69-.27,1.01-.46.32-.2.6-.44.89-.65.67-.48,1.17-.55,1.94-.26l.26.09c.11.04.26.1.4.1h0c.19,0,.31-.17.29-.35h0Z"/>
      </g>
    </g>
  </g>
</svg>