<?xml version="1.0" encoding="UTF-8"?>
<svg id="Capa_2" data-name="Capa 2" xmlns="http://www.w3.org/2000/svg" viewBox="0 0 32 25.88">
  <defs>
    <style>
      .cls-1 {
        fill: #cd202a;
      }
    </style>
  </defs>
  <g id="Capa_2-2" data-name="Capa 2">
    <g id="Capa_1-2" data-name="Capa 1-2">
      <g>
        <path class="cls-1" d="M30.14,6.72c-.76-.46-1.56-.85-2.4-1.16-.2.82-.39,1.64-.59,2.45.84.3,1.6.62,2.4,1.03.19-.77.39-1.55.59-2.32Z"/>
        <path class="cls-1" d="M25.98,12.99c.83.22,1.6.47,2.4.79.19-.8.39-1.59.59-2.39-.8-.36-1.56-.64-2.4-.9-.2.83-.39,1.67-.59,2.5h0Z"/>
        <path class="cls-1" d="M13.37,2.9c-.11.43-.21.87-.32,1.3.53-.22,1.07-.38,1.61-.48.29-.05.58-.09.86-.1-.74-.21-1.43-.44-2.15-.72h0Z"/>
        <path class="cls-1" d="M22.99,15.16c.8.08,1.61.2,2.4.36.2-.84.39-1.68.59-2.53-.8-.17-1.59-.33-2.4-.42-.2.86-.39,1.73-.59,2.59h0Z"/>
        <path class="cls-1" d="M22.94,4.53c.2.23.39.47.56.74.19.29.34.62.46.95.06.18.14.43.16.71.01.14,0,.27-.02.4.22.03.44.07.66.1-.2.85-.39,1.71-.59,2.56.81.11,1.6.3,2.4.49.2-.83.39-1.65.59-2.48-.79-.23-1.58-.45-2.4-.58.2-.85.39-1.7.59-2.55-.79-.16-1.6-.28-2.4-.35h0Z"/>
        <path class="cls-1" d="M22.74,9.82c-.02.8-.11,1.71-.29,2.63.37.04.75.08,1.12.12.2-.86.39-1.72.59-2.58-.47-.07-.95-.13-1.42-.17h0Z"/>
        <path class="cls-1" d="M31.18,4.79c-1.06-.42-3.01-1.18-4.17-1.45-.82-.19-2.64-.37-4.58-.55-.49-.05-.99-.09-1.47-.14-.83-.08-1.87-.19-2.58-.3-.27-.04-.47-.08-.62-.12-1.51-.38-5.02-2.01-5.06-2.03l-.42-.2-1.87,5.36-.1.29c.03.06.06.11.09.17.13-.11.27-.22.41-.32.19-.15.39-.29.59-.42l1.37-3.93c.97.44,3.35,1.5,4.66,1.86.29-.11.59-.19.88-.25.28-.05.55-.08.83-.08h.14c.56.03,1.11.16,1.63.38.33.14.64.31.95.51.16.02.32.03.49.05,1.82.17,3.7.35,4.46.53,1.11.26,3.02,1,4.05,1.41.21.08.33.31.28.53l-2.41,10.93c-.03.13-.11.24-.23.31-.12.06-.26.07-.38.02-1.23-.49-2.87-1.09-3.67-1.21-.45-.07-1.49-.15-3.04-.27-.06.13-.12.27-.18.41-.06.13-.13.27-.19.41h.16c1.31.11,2.66.21,3.12.28.56.09,1.8.5,3.49,1.16.15.06.31.09.48.09.21,0,.42-.05.61-.15.34-.18.58-.49.66-.87l2.41-10.93c.14-.62-.19-1.25-.79-1.49h0Z"/>
        <path class="cls-1" d="M4.78,21.52l-1.33,3.8c-.08.22.04.46.26.53.05.02.09.02.14.02.17,0,.34-.11.4-.28l1.2-3.46c-.11-.1-.23-.21-.34-.31-.11-.1-.22-.21-.33-.31Z"/>
        <path class="cls-1" d="M5.12,21.83c.11.1.22.21.34.31l-.67-.62c.11.1.22.21.33.31Z"/>
        <path class="cls-1" d="M21.51,7.99c-.11-.25-.4-.37-.65-.26s-.37.4-.26.65c.17.39.28,2.53-.46,5.08-.67,2.28-2.2,5.49-5.7,7.86l-3.73,2.51c-1.4-.98-7.79-5.68-9.27-10.28-.9-2.81-.26-4.7.44-5.79.62-.96,1.81-2,3.08-2.16,1.95-.24,3.73,1.17,3.75,1.19.21.17.52.14.7-.07s.14-.52-.07-.7c-.09-.07-2.12-1.7-4.5-1.4-1.4.17-2.89,1.2-3.79,2.61-.81,1.27-1.57,3.45-.55,6.63.74,2.31,2.65,4.87,5.66,7.6,2.22,2.01,4.2,3.34,4.28,3.39l.28.18,4.29-2.89c3.75-2.53,5.38-5.97,6.1-8.4.77-2.63.74-5.03.42-5.76h0Z"/>
        <path class="cls-1" d="M5.8,14.7s.46.25.53.25h0c.05-.07-.05-.42-.07-.44-.02-.02-.05-.02-.1-.02-.16,0-.44.11-.37.21h0Z"/>
        <path class="cls-1" d="M11.44,8.73c.04.3.5-.13.8-.15.23-.02.42.13.62.18.1.03.2-.06.18-.17-.13-.89-1.7-.68-1.61.13h0Z"/>
        <path class="cls-1" d="M23.5,7.54c-.01-.16-.06-.31-.11-.45-.09-.26-.22-.52-.36-.75-.75-1.17-2.01-2.05-3.44-2.12-.84-.02-1.66.27-2.36.74-.54-.22-1.22-.29-2.01-.2-1.21.14-2.55.65-3.77,1.43-1.55.99-1.66,1.79-1.77,2.57,0,.05-.01.1-.02.15-.06.43-.15.84-.55,1.35-.69.86-2.37,2.17-3.7,3.15,0,0,0,0,0,0-.35.26-.67.49-.95.68,0,0,0,0-.01,0-.05.02-.1.06-.14.1-.12.13-.15.32-.06.48.07.12.14.23.23.33.9,1.1,2.7,1.27,4,.91,1.5-.41,2.89-1.19,4.27-1.85.5-.24,1.01-.49,1.54-.63.04-.01.12-.03.17-.03.31-.06.57.1.8.33,1.31,1.48.77,3.91.04,5.56-.1.24.24.38.35.16.84-1.81,1.42-4.39-.03-6.06-.27-.29-.63-.51-1.03-.52h0-.02c-.1,0-.2,0-.3.03-.62.13-1.19.4-1.76.66-1.17.54-2.28,1.12-3.48,1.53-.46.16-.94.29-1.41.33-.69.05-1.42-.05-2.03-.39-.2-.12-.38-.26-.53-.43,1.38-.98,3.76-2.75,4.66-3.88.39-.49.56-.93.64-1.33.04-.19.07-.37.09-.54.09-.69.17-1.23,1.42-2.03,2.23-1.42,4.78-1.84,5.61-.87,0,0,.38-.28.58-.41.85-.54,1.86-.68,2.84-.2.89.42,1.7,1.17,2.02,2.12-.07-.02-.15-.04-.23-.06-1.39-.46-2.23-.48-3.41.46-.51.4-.95.85-1.5,1.16-.33.18-.67.36-1.02.5-.09.03-.04.17.05.14.49-.18.97-.38,1.42-.64.45-.28.84-.62,1.25-.9.94-.67,1.64-.77,2.7-.37l.36.13c.16.05.36.14.55.13h0c.27,0,.43-.23.41-.48h0Z"/>
      </g>
    </g>
  </g>
</svg>