<svg width="81" height="81" viewBox="0 0 81 81" fill="none" xmlns="http://www.w3.org/2000/svg">
<path d="M30.3125 80.8333C26.3382 80.8333 22.987 79.4693 20.2589 76.7411C17.5307 74.013 16.1667 70.6618 16.1667 66.6875C16.1667 66.0813 16.2509 65.6097 16.4193 65.2729C16.5877 64.9361 16.5708 64.6667 16.3687 64.4646C16.1667 64.2625 15.8972 64.2457 15.5604 64.4141C15.2236 64.5825 14.7521 64.6667 14.1458 64.6667C10.1715 64.6667 6.82031 63.3026 4.09219 60.5745C1.36406 57.8464 0 54.4951 0 50.5208C0 46.5465 1.36406 43.1953 4.09219 40.4672C6.82031 37.7391 10.1715 36.375 14.1458 36.375C15.6951 36.375 17.1097 36.5771 18.3896 36.9813C19.6694 37.3854 20.8819 37.9917 22.0271 38.8L38.8 22.0271C37.9917 20.8819 37.3854 19.6694 36.9813 18.3896C36.5771 17.1097 36.375 15.6951 36.375 14.1458C36.375 10.1715 37.7391 6.82031 40.4672 4.09219C43.1953 1.36406 46.5465 0 50.5208 0C54.4951 0 57.8464 1.36406 60.5745 4.09219C63.3026 6.82031 64.6667 10.1715 64.6667 14.1458C64.6667 14.7521 64.5825 15.2236 64.4141 15.5604C64.2457 15.8972 64.2625 16.1667 64.4646 16.3687C64.6667 16.5708 64.9361 16.5877 65.2729 16.4193C65.6097 16.2509 66.0813 16.1667 66.6875 16.1667C70.6618 16.1667 74.013 17.5307 76.7411 20.2589C79.4693 22.987 80.8333 26.3382 80.8333 30.3125C80.8333 34.2868 79.4693 37.638 76.7411 40.3661C74.013 43.0943 70.6618 44.4583 66.6875 44.4583C65.1382 44.4583 63.7236 44.2562 62.4437 43.8521C61.1639 43.4479 59.9514 42.8417 58.8063 42.0333L42.0333 58.8063C42.8417 59.9514 43.4479 61.1639 43.8521 62.4437C44.2562 63.7236 44.4583 65.1382 44.4583 66.6875C44.4583 70.6618 43.0943 74.013 40.3661 76.7411C37.638 79.4693 34.2868 80.8333 30.3125 80.8333ZM30.3125 72.75C32.0639 72.75 33.5122 72.1774 34.6573 71.0323C35.8024 69.8872 36.375 68.4389 36.375 66.6875C36.375 66.0813 36.2908 65.4918 36.1224 64.9193C35.954 64.3467 35.7014 63.791 35.3646 63.2521C34.2194 61.6354 33.7479 59.9009 33.95 58.0484C34.1521 56.196 34.9604 54.5625 36.375 53.1479L53.1479 36.375C54.5625 34.9604 56.196 34.1521 58.0484 33.95C59.9009 33.7479 61.6354 34.2194 63.2521 35.3646C63.791 35.7014 64.3467 35.954 64.9193 36.1224C65.4918 36.2908 66.0813 36.375 66.6875 36.375C68.4389 36.375 69.8872 35.8024 71.0323 34.6573C72.1774 33.5122 72.75 32.0639 72.75 30.3125C72.75 28.5611 72.1774 27.1128 71.0323 25.9677C69.8872 24.8226 68.4389 24.25 66.6875 24.25C64.3299 24.25 62.6795 24.1321 61.7365 23.8964C60.7934 23.6606 59.8167 23.0375 58.8063 22.0271C57.7958 21.0167 57.1727 20.0399 56.937 19.0969C56.7012 18.1538 56.5833 16.5035 56.5833 14.1458C56.5833 12.3944 56.0108 10.9462 54.8656 9.80104C53.7205 8.6559 52.2722 8.08333 50.5208 8.08333C48.7694 8.08333 47.3212 8.6559 46.176 9.80104C45.0309 10.9462 44.4583 12.3944 44.4583 14.1458C44.4583 14.8868 44.5257 15.5099 44.6604 16.0151C44.7951 16.5203 45.0646 17.0424 45.4688 17.5812C46.6139 19.1979 47.0854 20.9325 46.8833 22.7849C46.6813 24.6373 45.8729 26.2708 44.4583 27.6854L27.6854 44.4583C26.2708 45.8729 24.6373 46.6813 22.7849 46.8833C20.9325 47.0854 19.1979 46.6139 17.5812 45.4688C17.0424 45.1319 16.4866 44.8793 15.9141 44.7109C15.3415 44.5425 14.7521 44.4583 14.1458 44.4583C12.3944 44.4583 10.9462 45.0309 9.80104 46.176C8.6559 47.3212 8.08333 48.7694 8.08333 50.5208C8.08333 52.2722 8.6559 53.7205 9.80104 54.8656C10.9462 56.0108 12.3944 56.5833 14.1458 56.5833C16.5035 56.5833 18.1538 56.7012 19.0969 56.937C20.0399 57.1727 21.0167 57.7958 22.0271 58.8063C23.0375 59.8167 23.6606 60.7934 23.8964 61.7365C24.1321 62.6795 24.25 64.3299 24.25 66.6875C24.25 68.4389 24.8226 69.8872 25.9677 71.0323C27.1128 72.1774 28.5611 72.75 30.3125 72.75Z" fill="#CC2530"/>
</svg>
