<svg width="91" height="89" viewBox="0 0 91 89" fill="none" xmlns="http://www.w3.org/2000/svg">
<path d="M65 47.6667L47.0167 30.1167C44.7778 27.95 42.8819 25.5486 41.3292 22.9125C39.7764 20.2764 39 17.4056 39 14.3C39 10.3278 40.3903 6.95139 43.1708 4.17083C45.9514 1.39028 49.3278 0 53.3 0C55.6111 0 57.7778 0.4875 59.8 1.4625C61.8222 2.4375 63.5556 3.75556 65 5.41667C66.4444 3.75556 68.1778 2.4375 70.2 1.4625C72.2222 0.4875 74.3889 0 76.7 0C80.6722 0 84.0486 1.39028 86.8292 4.17083C89.6097 6.95139 91 10.3278 91 14.3C91 17.4056 90.2417 20.2764 88.725 22.9125C87.2083 25.5486 85.3306 27.95 83.0917 30.1167L65 47.6667ZM65 35.5333L76.8083 23.9417C78.1806 22.5694 79.4444 21.1069 80.6 19.5542C81.7556 18.0014 82.3333 16.25 82.3333 14.3C82.3333 12.7111 81.7917 11.375 80.7083 10.2917C79.625 9.20833 78.2889 8.66667 76.7 8.66667C75.6889 8.66667 74.7319 8.86528 73.8292 9.2625C72.9264 9.65972 72.15 10.2556 71.5 11.05L65 18.85L58.5 11.05C57.85 10.2556 57.0736 9.65972 56.1708 9.2625C55.2681 8.86528 54.3111 8.66667 53.3 8.66667C51.7111 8.66667 50.375 9.20833 49.2917 10.2917C48.2083 11.375 47.6667 12.7111 47.6667 14.3C47.6667 16.25 48.2444 18.0014 49.4 19.5542C50.5556 21.1069 51.8194 22.5694 53.1917 23.9417L65 35.5333ZM26 71.5L56.1167 79.7333L81.9 71.7167C81.5389 71.0667 81.0153 70.5069 80.3292 70.0375C79.6431 69.5681 78.8667 69.3333 78 69.3333H56.1167C54.1667 69.3333 52.6139 69.2611 51.4583 69.1167C50.3028 68.9722 49.1111 68.6833 47.8833 68.25L37.8083 64.8917L40.1917 56.4417L48.9667 59.3667C50.1944 59.7278 51.6389 60.0167 53.3 60.2333C54.9611 60.45 57.4167 60.5944 60.6667 60.6667C60.6667 59.8722 60.4319 59.1139 59.9625 58.3917C59.4931 57.6694 58.9333 57.2 58.2833 56.9833L32.9333 47.6667H26V71.5ZM0 86.6667V39H32.9333C33.4389 39 33.9444 39.0542 34.45 39.1625C34.9556 39.2708 35.425 39.3972 35.8583 39.5417L61.3167 48.9667C63.7 49.8333 65.6319 51.35 67.1125 53.5167C68.5931 55.6833 69.3333 58.0667 69.3333 60.6667H78C81.6111 60.6667 84.6806 61.8583 87.2083 64.2417C89.7361 66.625 91 69.7667 91 73.6667V78L56.3333 88.8333L26 80.3833V86.6667H0ZM8.66667 78H17.3333V47.6667H8.66667V78Z" fill="#CC2530"/>
</svg>
